  0
SECTION
  2
HEADER
  9
$ACADVER
  1
AC1015
  9
$ACADMAINTVER
 70
     6
  9
$DWGCODEPAGE
  3
ANSI_1252
  9
$INSBASE
 10
0.0
 20
0.0
 30
0.0
  9
$EXTMIN
 10
-47.096100842
 20
-49.4293206639
 30
0.0
  9
$EXTMAX
 10
59.2391728571
 20
45.1845318892
 30
0.0
  9
$LIMMIN
 10
0.0
 20
0.0
  9
$LIMMAX
 10
420.0
 20
297.0
  9
$ORTHOMODE
 70
     0
  9
$REGENMODE
 70
     1
  9
$FILLMODE
 70
     1
  9
$QTEXTMODE
 70
     0
  9
$MIRRTEXT
 70
     1
  9
$LTSCALE
 40
1.0
  9
$ATTMODE
 70
     1
  9
$TEXTSIZE
 40
3.5
  9
$TRACEWID
 40
1.0
  9
$TEXTSTYLE
  7
Standard
  9
$CLAYER
  8
0
  9
$CELTYPE
  6
ByLayer
  9
$CECOLOR
 62
   256
  9
$CELTSCALE
 40
1.0
  9
$DISPSILH
 70
     0
  9
$DIMSCALE
 40
1.0
  9
$DIMASZ
 40
3.302
  9
$DIMEXO
 40
0.0
  9
$DIMDLI
 40
3.75
  9
$DIMRND
 40
0.0
  9
$DIMDLE
 40
0.0
  9
$DIMEXE
 40
1.0
  9
$DIMTP
 40
0.0
  9
$DIMTM
 40
0.0
  9
$DIMTXT
 40
3.5
  9
$DIMCEN
 40
2.5
  9
$DIMTSZ
 40
0.0
  9
$DIMTOL
 70
     0
  9
$DIMLIM
 70
     0
  9
$DIMTIH
 70
     1
  9
$DIMTOH
 70
     1
  9
$DIMSE1
 70
     0
  9
$DIMSE2
 70
     0
  9
$DIMTAD
 70
     1
  9
$DIMZIN
 70
     1
  9
$DIMBLK
  1

  9
$DIMASO
 70
     1
  9
$DIMSHO
 70
     1
  9
$DIMPOST
  1

  9
$DIMAPOST
  1

  9
$DIMALT
 70
     0
  9
$DIMALTD
 70
     3
  9
$DIMALTF
 40
0.0393700787
  9
$DIMLFAC
 40
1.0
  9
$DIMTOFL
 70
     1
  9
$DIMTVP
 40
0.0
  9
$DIMTIX
 70
     0
  9
$DIMSOXD
 70
     0
  9
$DIMSAH
 70
     0
  9
$DIMBLK1
  1

  9
$DIMBLK2
  1

  9
$DIMSTYLE
  2
ISO-25
  9
$DIMCLRD
 70
     0
  9
$DIMCLRE
 70
     0
  9
$DIMCLRT
 70
     0
  9
$DIMTFAC
 40
1.0
  9
$DIMGAP
 40
1.524
  9
$DIMJUST
 70
     0
  9
$DIMSD1
 70
     0
  9
$DIMSD2
 70
     0
  9
$DIMTOLJ
 70
     0
  9
$DIMTZIN
 70
     1
  9
$DIMALTZ
 70
     0
  9
$DIMALTTZ
 70
     0
  9
$DIMUPT
 70
     0
  9
$DIMDEC
 70
     2
  9
$DIMTDEC
 70
     2
  9
$DIMALTU
 70
     2
  9
$DIMALTTD
 70
     3
  9
$DIMTXSTY
  7
Standard
  9
$DIMAUNIT
 70
     0
  9
$DIMADEC
 70
     2
  9
$DIMALTRND
 40
0.0
  9
$DIMAZIN
 70
     0
  9
$DIMDSEP
 70
    44
  9
$DIMATFIT
 70
     3
  9
$DIMFRAC
 70
     0
  9
$DIMLDRBLK
  1

  9
$DIMLUNIT
 70
     2
  9
$DIMLWD
 70
    -2
  9
$DIMLWE
 70
    -2
  9
$DIMTMOVE
 70
     0
  9
$LUNITS
 70
     2
  9
$LUPREC
 70
     2
  9
$SKETCHINC
 40
1.0
  9
$FILLETRAD
 40
0.0
  9
$AUNITS
 70
     0
  9
$AUPREC
 70
     2
  9
$MENU
  1
.
  9
$ELEVATION
 40
0.0
  9
$PELEVATION
 40
0.0
  9
$THICKNESS
 40
0.0
  9
$LIMCHECK
 70
     0
  9
$CHAMFERA
 40
0.0
  9
$CHAMFERB
 40
0.0
  9
$CHAMFERC
 40
0.0
  9
$CHAMFERD
 40
0.0
  9
$SKPOLY
 70
     0
  9
$TDCREATE
 40
2461106.695874202
  9
$TDUCREATE
 40
2461107.029207535
  9
$TDUPDATE
 40
2461106.695923565
  9
$TDUUPDATE
 40
2461107.029256898
  9
$TDINDWG
 40
0.0000000116
  9
$TDUSRTIMER
 40
0.0000000116
  9
$USRTIMER
 70
     1
  9
$ANGBASE
 50
0.0
  9
$ANGDIR
 70
     0
  9
$PDMODE
 70
     0
  9
$PDSIZE
 40
-1.0
  9
$PLINEWID
 40
0.0
  9
$SPLFRAME
 70
     0
  9
$SPLINETYPE
 70
     6
  9
$SPLINESEGS
 70
     8
  9
$HANDSEED
  5
90
  9
$SURFTAB1
 70
     6
  9
$SURFTAB2
 70
     6
  9
$SURFTYPE
 70
     6
  9
$SURFU
 70
     6
  9
$SURFV
 70
     6
  9
$UCSBASE
  2

  9
$UCSNAME
  2

  9
$UCSORG
 10
0.0
 20
0.0
 30
0.0
  9
$UCSXDIR
 10
1.0
 20
0.0
 30
0.0
  9
$UCSYDIR
 10
0.0
 20
1.0
 30
0.0
  9
$UCSORTHOREF
  2

  9
$UCSORTHOVIEW
 70
     0
  9
$UCSORGTOP
 10
0.0
 20
0.0
 30
0.0
  9
$UCSORGBOTTOM
 10
0.0
 20
0.0
 30
0.0
  9
$UCSORGLEFT
 10
0.0
 20
0.0
 30
0.0
  9
$UCSORGRIGHT
 10
0.0
 20
0.0
 30
0.0
  9
$UCSORGFRONT
 10
0.0
 20
0.0
 30
0.0
  9
$UCSORGBACK
 10
0.0
 20
0.0
 30
0.0
  9
$PUCSBASE
  2

  9
$PUCSNAME
  2

  9
$PUCSORG
 10
0.0
 20
0.0
 30
0.0
  9
$PUCSXDIR
 10
1.0
 20
0.0
 30
0.0
  9
$PUCSYDIR
 10
0.0
 20
1.0
 30
0.0
  9
$PUCSORTHOREF
  2

  9
$PUCSORTHOVIEW
 70
     0
  9
$PUCSORGTOP
 10
0.0
 20
0.0
 30
0.0
  9
$PUCSORGBOTTOM
 10
0.0
 20
0.0
 30
0.0
  9
$PUCSORGLEFT
 10
0.0
 20
0.0
 30
0.0
  9
$PUCSORGRIGHT
 10
0.0
 20
0.0
 30
0.0
  9
$PUCSORGFRONT
 10
0.0
 20
0.0
 30
0.0
  9
$PUCSORGBACK
 10
0.0
 20
0.0
 30
0.0
  9
$USERI1
 70
     0
  9
$USERI2
 70
     0
  9
$USERI3
 70
     0
  9
$USERI4
 70
     0
  9
$USERI5
 70
     0
  9
$USERR1
 40
0.0
  9
$USERR2
 40
0.0
  9
$USERR3
 40
0.0
  9
$USERR4
 40
0.0
  9
$USERR5
 40
0.0
  9
$WORLDVIEW
 70
     1
  9
$SHADEDGE
 70
     3
  9
$SHADEDIF
 70
    70
  9
$TILEMODE
 70
     1
  9
$MAXACTVP
 70
    64
  9
$PINSBASE
 10
0.0
 20
0.0
 30
0.0
  9
$PLIMCHECK
 70
     0
  9
$PEXTMIN
 10
1.0000000000E+20
 20
1.0000000000E+20
 30
1.0000000000E+20
  9
$PEXTMAX
 10
-1.0000000000E+20
 20
-1.0000000000E+20
 30
-1.0000000000E+20
  9
$PLIMMIN
 10
0.0
 20
0.0
  9
$PLIMMAX
 10
420.0
 20
297.0
  9
$UNITMODE
 70
     0
  9
$VISRETAIN
 70
     1
  9
$PLINEGEN
 70
     0
  9
$PSLTSCALE
 70
     1
  9
$TREEDEPTH
 70
  3020
  9
$CMLSTYLE
  2
Standard
  9
$CMLJUST
 70
     0
  9
$CMLSCALE
 40
20.0
  9
$PROXYGRAPHICS
 70
     1
  9
$MEASUREMENT
 70
     1
  9
$CELWEIGHT
370
    -1
  9
$ENDCAPS
280
     0
  9
$JOINSTYLE
280
     0
  9
$LWDISPLAY
290
     1
  9
$INSUNITS
 70
     4
  9
$HYPERLINKBASE
  1

  9
$STYLESHEET
  1

  9
$XEDIT
290
     1
  9
$CEPSNTYPE
380
     0
  9
$PSTYLEMODE
290
     1
  9
$FINGERPRINTGUID
  2
{63a13e6b-38d7-434c-9848-4537ac221275}
  9
$VERSIONGUID
  2
{FAEB1C32-E019-11D5-929B-00C0DF256EC4}
  9
$EXTNAMES
290
     1
  9
$PSVPSCALE
 40
0.0
  9
$OLESTARTUP
290
     0
  0
ENDSEC
  0
SECTION
  2
CLASSES
  0
CLASS
  1
ACDBDICTIONARYWDFLT
  2
AcDbDictionaryWithDefault
  3
ObjectDBX Classes
 90
        0
280
     0
281
     0
  0
CLASS
  1
VISUALSTYLE
  2
AcDbVisualStyle
  3
ObjectDBX Classes
 90
     4095
280
     0
281
     0
  0
CLASS
  1
MATERIAL
  2
AcDbMaterial
  3
ObjectDBX Classes
 90
     1153
280
     0
281
     0
  0
CLASS
  1
SCALE
  2
AcDbScale
  3
ObjectDBX Classes
 90
     1153
280
     0
281
     0
  0
CLASS
  1
TABLESTYLE
  2
AcDbTableStyle
  3
ObjectDBX Classes
 90
     4095
280
     0
281
     0
  0
CLASS
  1
MLEADERSTYLE
  2
AcDbMLeaderStyle
  3
ACDB_MLEADERSTYLE_CLASS
 90
     4095
280
     0
281
     0
  0
CLASS
  1
SUN
  2
AcDbSun
  3
SCENEOE
 90
     1153
280
     0
281
     0
  0
CLASS
  1
ACDBPLACEHOLDER
  2
AcDbPlaceHolder
  3
ObjectDBX Classes
 90
        0
280
     0
281
     0
  0
CLASS
  1
LAYOUT
  2
AcDbLayout
  3
ObjectDBX Classes
 90
        0
280
     0
281
     0
  0
ENDSEC
  0
SECTION
  2
TABLES
  0
TABLE
  2
VPORT
  5
8
330
0
100
AcDbSymbolTable
 70
     1
  0
VPORT
  5
29
330
8
100
AcDbSymbolTableRecord
100
AcDbViewportTableRecord
  2
*Active
 70
     0
 10
0.0
 20
0.0
 11
1.0
 21
1.0
 12
6.0715360075
 22
-2.1223943874
 13
0.0
 23
0.0
 14
10.0
 24
10.0
 15
10.0
 25
10.0
 16
0.0
 26
0.0
 36
1.0
 17
0.0
 27
0.0
 37
0.0
 40
96.5061296042
 41
1.123886945
 42
50.0
 43
0.0
 44
0.0
 50
0.0
 51
0.0
 71
     0
 72
   100
 73
     1
 74
     3
 75
     0
 76
     0
 77
     0
 78
     0
281
     0
 65
     1
110
0.0
120
0.0
130
0.0
111
1.0
121
0.0
131
0.0
112
0.0
122
1.0
132
0.0
 79
     0
146
0.0
  0
ENDTAB
  0
TABLE
  2
LTYPE
  5
5
330
0
100
AcDbSymbolTable
 70
     6
  0
LTYPE
  5
14
330
5
100
AcDbSymbolTableRecord
100
AcDbLinetypeTableRecord
  2
ByBlock
 70
     0
  3

 72
    65
 73
     0
 40
0.0
  0
LTYPE
  5
15
330
5
100
AcDbSymbolTableRecord
100
AcDbLinetypeTableRecord
  2
ByLayer
 70
     0
  3

 72
    65
 73
     0
 40
0.0
  0
LTYPE
  5
16
330
5
100
AcDbSymbolTableRecord
100
AcDbLinetypeTableRecord
  2
Continuous
 70
     0
  3
Solid line
 72
    65
 73
     0
 40
0.0
  0
LTYPE
  5
5E
330
5
100
AcDbSymbolTableRecord
100
AcDbLinetypeTableRecord
  2
HIDDEN
 70
     0
  3
Hidden __ __ __ __ __ __ __ __ __ __ __ __ __ __
 72
    65
 73
     2
 40
1.905
 49
1.27
 74
     0
 49
-0.635
 74
     0
  0
LTYPE
  5
5F
330
5
100
AcDbSymbolTableRecord
100
AcDbLinetypeTableRecord
  2
PHANTOM
 70
     0
  3
Phantom ______  __  __  ______  __  __  ______
 72
    65
 73
     6
 40
12.7
 49
6.35
 74
     0
 49
-1.27
 74
     0
 49
1.27
 74
     0
 49
-1.27
 74
     0
 49
1.27
 74
     0
 49
-1.27
 74
     0
  0
LTYPE
  5
60
330
5
100
AcDbSymbolTableRecord
100
AcDbLinetypeTableRecord
  2
CENTER
 70
     0
  3
Center ____ _ ____ _ ____ _ ____ _ ____ _ ____
 72
    65
 73
     4
 40
10.16
 49
6.35
 74
     0
 49
-1.27
 74
     0
 49
1.27
 74
     0
 49
-1.27
 74
     0
  0
LTYPE
  5
61
330
5
100
AcDbSymbolTableRecord
100
AcDbLinetypeTableRecord
  2
CENTERX2
 70
     0
  3
Center (2x) ________  __  ________  __  _____
 72
    65
 73
     4
 40
20.32
 49
12.7
 74
     0
 49
-2.54
 74
     0
 49
2.54
 74
     0
 49
-2.54
 74
     0
  0
LTYPE
  5
62
330
5
100
AcDbSymbolTableRecord
100
AcDbLinetypeTableRecord
  2
DOT2
 70
     0
  3
Dot (.5x) ........................................
 72
    65
 73
     2
 40
0.635
 49
0.0
 74
     0
 49
-0.635
 74
     0
  0
ENDTAB
  0
TABLE
  2
LAYER
  5
2
330
0
100
AcDbSymbolTable
 70
     1
  0
LAYER
  5
10
330
2
100
AcDbSymbolTableRecord
100
AcDbLayerTableRecord
  2
0
 70
     0
 62
     7
  6
Continuous
370
    -3
390
F
  0
ENDTAB
  0
TABLE
  2
STYLE
  5
3
330
0
100
AcDbSymbolTable
 70
     2
  0
STYLE
  5
11
330
3
100
AcDbSymbolTableRecord
100
AcDbTextStyleTableRecord
  2
Standard
 70
     0
 40
0.0
 41
1.0
 50
0.0
 71
     0
 42
3.5
  3
txt
  4

  0
STYLE
  5
8C
330
3
100
AcDbSymbolTableRecord
100
AcDbTextStyleTableRecord
  2
SLDTEXTSTYLE0
 70
     0
 40
0.0
 41
0.7
 50
0.0
 71
     0
 42
3.5
  3
TXT
  4

  0
ENDTAB
  0
TABLE
  2
VIEW
  5
6
330
0
100
AcDbSymbolTable
 70
     0
  0
ENDTAB
  0
TABLE
  2
UCS
  5
7
330
0
100
AcDbSymbolTable
 70
     0
  0
ENDTAB
  0
TABLE
  2
APPID
  5
9
330
0
100
AcDbSymbolTable
 70
     1
  0
APPID
  5
12
330
9
100
AcDbSymbolTableRecord
100
AcDbRegAppTableRecord
  2
ACAD
 70
     0
  0
ENDTAB
  0
TABLE
  2
DIMSTYLE
  5
A
330
0
100
AcDbSymbolTable
 70
     1
100
AcDbDimStyleTable
  0
DIMSTYLE
105
27
330
A
100
AcDbSymbolTableRecord
100
AcDbDimStyleTableRecord
  2
ISO-25
 70
     0
 41
2.5
 42
0.625
 43
3.75
 44
1.25
 73
     0
 74
     0
 77
     1
 78
     8
140
2.5
141
2.5
143
0.0393700787
147
0.625
171
     3
172
     1
178
     0
271
     2
272
     2
274
     3
278
    44
283
     0
284
     8
340
11
  0
ENDTAB
  0
TABLE
  2
BLOCK_RECORD
  5
1
330
0
100
AcDbSymbolTable
 70
     1
  0
BLOCK_RECORD
  5
1F
330
1
100
AcDbSymbolTableRecord
100
AcDbBlockTableRecord
  2
*Model_Space
340
22
  0
BLOCK_RECORD
  5
1B
330
1
100
AcDbSymbolTableRecord
100
AcDbBlockTableRecord
  2
*Paper_Space
340
1E
  0
BLOCK_RECORD
  5
23
330
1
100
AcDbSymbolTableRecord
100
AcDbBlockTableRecord
  2
*Paper_Space0
340
26
  0
ENDTAB
  0
ENDSEC
  0
SECTION
  2
BLOCKS
  0
BLOCK
  5
20
330
1F
100
AcDbEntity
  8
0
100
AcDbBlockBegin
  2
*Model_Space
 70
     0
 10
0.0
 20
0.0
 30
0.0
  3
*Model_Space
  1

  0
ENDBLK
  5
21
330
1F
100
AcDbEntity
  8
0
100
AcDbBlockEnd
  0
BLOCK
  5
1C
330
1B
100
AcDbEntity
 67
     1
  8
0
100
AcDbBlockBegin
  2
*Paper_Space
 70
     0
 10
0.0
 20
0.0
 30
0.0
  3
*Paper_Space
  1

  0
ENDBLK
  5
1D
330
1B
100
AcDbEntity
 67
     1
  8
0
100
AcDbBlockEnd
  0
BLOCK
  5
24
330
23
100
AcDbEntity
  8
0
100
AcDbBlockBegin
  2
*Paper_Space0
 70
     0
 10
0.0
 20
0.0
 30
0.0
  3
*Paper_Space0
  1

  0
ENDBLK
  5
25
330
23
100
AcDbEntity
  8
0
100
AcDbBlockEnd
  0
ENDSEC
  0
SECTION
  2
ENTITIES
  0
LINE
  5
63
330
1F
100
AcDbEntity
  8
0
  6
Continuous
 62
     7
370
    25
100
AcDbLine
 10
58.4519350984
 20
-15.6088110063
 30
0.0
 11
59.1903401541
 21
-12.3288318884
 31
0.0
  0
ARC
  5
64
330
1F
100
AcDbEntity
  8
0
  6
Continuous
 62
     7
370
    25
100
AcDbCircle
 10
57.2391728571
 20
-11.8895754953
 30
0.0
 40
1.999999999999994
100
AcDbArc
 50
347.3128038645
 51
61.1191983384
  0
ARC
  5
65
330
1F
100
AcDbEntity
  8
0
  6
Continuous
 62
     7
370
    25
100
AcDbCircle
 10
62.0690629625
 20
-3.1333113622
 30
0.0
 40
8.000000000000004
100
AcDbArc
 50
175.6132015864
 51
241.1191983384
  0
ARC
  5
66
330
1F
100
AcDbEntity
  8
0
  6
Continuous
 62
     7
370
    25
100
AcDbCircle
 10
7.7703576326
 20
1.0321614328
 30
0.0
 40
46.45824606160917
100
AcDbArc
 50
355.6132015864
 51
19.4496383234
  0
ARC
  5
67
330
1F
100
AcDbEntity
  8
0
  6
Continuous
 62
     7
370
    25
100
AcDbCircle
 10
59.1209185862
 20
19.1655685549
 30
0.0
 40
8.000000000000002
100
AcDbArc
 50
133.6670930709
 51
199.4496383234
  0
ARC
  5
68
330
1F
100
AcDbEntity
  8
0
  6
Continuous
 62
     7
370
    25
100
AcDbCircle
 10
52.2162478627
 20
26.3992067958
 30
0.0
 40
2.000000000000013
100
AcDbArc
 50
313.6670930709
 51
26.9129721252
  0
ARC
  5
69
330
1F
100
AcDbEntity
  8
0
  6
Continuous
 62
     7
370
    25
100
AcDbCircle
 10
0.2991782071
 20
0.0453926532
 30
0.0
 40
60.22289619625268
100
AcDbArc
 50
26.9129721252
 51
30.1274955014
  0
ARC
  5
6A
330
1F
100
AcDbEntity
  8
0
  6
Continuous
 62
     7
370
    25
100
AcDbCircle
 10
47.774654387
 20
27.5964106387
 30
0.0
 40
5.332282877162251
100
AcDbArc
 50
30.1274955014
 51
210.1274955014
  0
ARC
  5
6B
330
1F
100
AcDbEntity
  8
0
  6
Continuous
 62
     7
370
    25
100
AcDbCircle
 10
-0.5024477178
 20
2.2721407979
 30
0.0
 40
49.18913687509931
100
AcDbArc
 50
357.634116131
 51
27.4144708911
  0
SPLINE
  5
6C
330
1F
100
AcDbEntity
  8
0
  6
Continuous
 62
     7
370
    25
100
AcDbSpline
210
0.0
220
0.0
230
1.0
 70
     8
 71
     3
 72
   664
 73
   660
 74
     0
 42
0.00000001
 43
0.00000001
 40
0.0099100283335268
 40
0.0099100283335268
 40
0.0099100283335268
 40
0.0099100283335268
 40
0.0107421875
 40
0.0107421875
 40
0.01171875
 40
0.01171875
 40
0.0126953125
 40
0.0126953125
 40
0.013671875
 40
0.013671875
 40
0.0146484375
 40
0.0146484375
 40
0.015625
 40
0.015625
 40
0.0166015625
 40
0.0166015625
 40
0.017578125
 40
0.017578125
 40
0.0185546875
 40
0.0185546875
 40
0.01953125
 40
0.01953125
 40
0.0205078125
 40
0.0205078125
 40
0.021484375
 40
0.021484375
 40
0.0224609375
 40
0.0224609375
 40
0.0234375
 40
0.0234375
 40
0.0244140625
 40
0.0244140625
 40
0.025390625
 40
0.025390625
 40
0.0263671875
 40
0.0263671875
 40
0.02734375
 40
0.02734375
 40
0.0283203125
 40
0.0283203125
 40
0.029296875
 40
0.029296875
 40
0.0302734375
 40
0.0302734375
 40
0.03125
 40
0.03125
 40
0.03515625
 40
0.03515625
 40
0.037109375
 40
0.037109375
 40
0.0380859375
 40
0.0380859375
 40
0.03857421875
 40
0.03857421875
 40
0.0390625
 40
0.0390625
 40
0.041015625
 40
0.041015625
 40
0.0419921875
 40
0.0419921875
 40
0.04296875
 40
0.04296875
 40
0.044921875
 40
0.044921875
 40
0.046875
 40
0.046875
 40
0.048828125
 40
0.048828125
 40
0.05078125
 40
0.05078125
 40
0.052734375
 40
0.052734375
 40
0.0537109375
 40
0.0537109375
 40
0.0546875
 40
0.0546875
 40
0.056640625
 40
0.056640625
 40
0.0576171875
 40
0.0576171875
 40
0.05859375
 40
0.05859375
 40
0.060546875
 40
0.060546875
 40
0.0625
 40
0.0625
 40
0.064453125
 40
0.064453125
 40
0.0654296875
 40
0.0654296875
 40
0.06640625
 40
0.06640625
 40
0.068359375
 40
0.068359375
 40
0.0693359375
 40
0.0693359375
 40
0.0703125
 40
0.0703125
 40
0.072265625
 40
0.072265625
 40
0.07421875
 40
0.07421875
 40
0.076171875
 40
0.076171875
 40
0.0771484375
 40
0.0771484375
 40
0.078125
 40
0.078125
 40
0.080078125
 40
0.080078125
 40
0.0810546875
 40
0.0810546875
 40
0.08203125
 40
0.08203125
 40
0.083984375
 40
0.083984375
 40
0.0859375
 40
0.0859375
 40
0.087890625
 40
0.087890625
 40
0.0888671875
 40
0.0888671875
 40
0.08984375
 40
0.08984375
 40
0.091796875
 40
0.091796875
 40
0.09375
 40
0.09375
 40
0.095703125
 40
0.095703125
 40
0.09765625
 40
0.09765625
 40
0.099609375
 40
0.099609375
 40
0.1005859375
 40
0.1005859375
 40
0.1015625
 40
0.1015625
 40
0.103515625
 40
0.103515625
 40
0.10546875
 40
0.10546875
 40
0.107421875
 40
0.107421875
 40
0.1083984375
 40
0.1083984375
 40
0.109375
 40
0.109375
 40
0.111328125
 40
0.111328125
 40
0.11328125
 40
0.11328125
 40
0.115234375
 40
0.115234375
 40
0.1162109375
 40
0.1162109375
 40
0.1171875
 40
0.1171875
 40
0.119140625
 40
0.119140625
 40
0.12109375
 40
0.12109375
 40
0.123046875
 40
0.123046875
 40
0.125
 40
0.125
 40
0.126953125
 40
0.126953125
 40
0.12890625
 40
0.12890625
 40
0.130859375
 40
0.130859375
 40
0.1328125
 40
0.1328125
 40
0.134765625
 40
0.134765625
 40
0.13671875
 40
0.13671875
 40
0.138671875
 40
0.138671875
 40
0.140625
 40
0.140625
 40
0.142578125
 40
0.142578125
 40
0.14453125
 40
0.14453125
 40
0.146484375
 40
0.146484375
 40
0.1484375
 40
0.1484375
 40
0.150390625
 40
0.150390625
 40
0.15234375
 40
0.15234375
 40
0.154296875
 40
0.154296875
 40
0.15625
 40
0.15625
 40
0.16015625
 40
0.16015625
 40
0.162109375
 40
0.162109375
 40
0.1640625
 40
0.1640625
 40
0.16796875
 40
0.16796875
 40
0.169921875
 40
0.169921875
 40
0.171875
 40
0.171875
 40
0.173828125
 40
0.173828125
 40
0.17578125
 40
0.17578125
 40
0.177734375
 40
0.177734375
 40
0.1796875
 40
0.1796875
 40
0.181640625
 40
0.181640625
 40
0.18359375
 40
0.18359375
 40
0.185546875
 40
0.185546875
 40
0.1875
 40
0.1875
 40
0.189453125
 40
0.189453125
 40
0.19140625
 40
0.19140625
 40
0.193359375
 40
0.193359375
 40
0.1953125
 40
0.1953125
 40
0.197265625
 40
0.197265625
 40
0.19921875
 40
0.19921875
 40
0.203125
 40
0.203125
 40
0.2109375
 40
0.2109375
 40
0.212890625
 40
0.212890625
 40
0.21484375
 40
0.21484375
 40
0.216796875
 40
0.216796875
 40
0.21875
 40
0.21875
 40
0.220703125
 40
0.220703125
 40
0.22265625
 40
0.22265625
 40
0.224609375
 40
0.224609375
 40
0.2265625
 40
0.2265625
 40
0.23046875
 40
0.23046875
 40
0.234375
 40
0.234375
 40
0.23828125
 40
0.23828125
 40
0.240234375
 40
0.240234375
 40
0.2421875
 40
0.2421875
 40
0.244140625
 40
0.244140625
 40
0.24609375
 40
0.24609375
 40
0.25
 40
0.25
 40
0.251953125
 40
0.251953125
 40
0.25390625
 40
0.25390625
 40
0.2578125
 40
0.2578125
 40
0.26171875
 40
0.26171875
 40
0.263671875
 40
0.263671875
 40
0.2646484375
 40
0.2646484375
 40
0.265625
 40
0.265625
 40
0.26953125
 40
0.26953125
 40
0.271484375
 40
0.271484375
 40
0.2734375
 40
0.2734375
 40
0.27734375
 40
0.27734375
 40
0.28125
 40
0.28125
 40
0.283203125
 40
0.283203125
 40
0.28515625
 40
0.28515625
 40
0.2890625
 40
0.2890625
 40
0.29296875
 40
0.29296875
 40
0.294921875
 40
0.294921875
 40
0.296875
 40
0.296875
 40
0.30078125
 40
0.30078125
 40
0.302734375
 40
0.302734375
 40
0.3037109375
 40
0.3037109375
 40
0.3046875
 40
0.3046875
 40
0.30859375
 40
0.30859375
 40
0.3125
 40
0.3125
 40
0.314453125
 40
0.314453125
 40
0.31640625
 40
0.31640625
 40
0.3203125
 40
0.3203125
 40
0.32421875
 40
0.32421875
 40
0.326171875
 40
0.326171875
 40
0.328125
 40
0.328125
 40
0.33203125
 40
0.33203125
 40
0.333984375
 40
0.333984375
 40
0.3359375
 40
0.3359375
 40
0.33984375
 40
0.33984375
 40
0.34375
 40
0.34375
 40
0.345703125
 40
0.345703125
 40
0.34765625
 40
0.34765625
 40
0.3515625
 40
0.3515625
 40
0.35546875
 40
0.35546875
 40
0.359375
 40
0.359375
 40
0.36328125
 40
0.36328125
 40
0.365234375
 40
0.365234375
 40
0.3671875
 40
0.3671875
 40
0.37109375
 40
0.37109375
 40
0.375
 40
0.375
 40
0.37890625
 40
0.37890625
 40
0.380859375
 40
0.380859375
 40
0.3828125
 40
0.3828125
 40
0.38671875
 40
0.38671875
 40
0.388671875
 40
0.388671875
 40
0.390625
 40
0.390625
 40
0.3984375
 40
0.3984375
 40
0.40234375
 40
0.40234375
 40
0.404296875
 40
0.404296875
 40
0.40625
 40
0.40625
 40
0.4140625
 40
0.4140625
 40
0.41796875
 40
0.41796875
 40
0.419921875
 40
0.419921875
 40
0.421875
 40
0.421875
 40
0.42578125
 40
0.42578125
 40
0.427734375
 40
0.427734375
 40
0.4296875
 40
0.4296875
 40
0.4375
 40
0.4375
 40
0.44140625
 40
0.44140625
 40
0.443359375
 40
0.443359375
 40
0.4453125
 40
0.4453125
 40
0.44921875
 40
0.44921875
 40
0.451171875
 40
0.451171875
 40
0.453125
 40
0.453125
 40
0.4609375
 40
0.4609375
 40
0.46484375
 40
0.46484375
 40
0.466796875
 40
0.466796875
 40
0.46875
 40
0.46875
 40
0.47265625
 40
0.47265625
 40
0.4765625
 40
0.4765625
 40
0.484375
 40
0.484375
 40
0.48828125
 40
0.48828125
 40
0.490234375
 40
0.490234375
 40
0.4921875
 40
0.4921875
 40
0.49609375
 40
0.49609375
 40
0.5
 40
0.5
 40
0.50390625
 40
0.50390625
 40
0.5078125
 40
0.5078125
 40
0.51171875
 40
0.51171875
 40
0.513671875
 40
0.513671875
 40
0.515625
 40
0.515625
 40
0.5234375
 40
0.5234375
 40
0.52734375
 40
0.52734375
 40
0.529296875
 40
0.529296875
 40
0.53125
 40
0.53125
 40
0.53515625
 40
0.53515625
 40
0.5390625
 40
0.5390625
 40
0.546875
 40
0.546875
 40
0.55078125
 40
0.55078125
 40
0.552734375
 40
0.552734375
 40
0.5546875
 40
0.5546875
 40
0.5625
 40
0.5625
 40
0.56640625
 40
0.56640625
 40
0.568359375
 40
0.568359375
 40
0.5703125
 40
0.5703125
 40
0.57421875
 40
0.57421875
 40
0.578125
 40
0.578125
 40
0.58203125
 40
0.58203125
 40
0.5859375
 40
0.5859375
 40
0.58984375
 40
0.58984375
 40
0.59375
 40
0.59375
 40
0.6015625
 40
0.6015625
 40
0.60546875
 40
0.60546875
 40
0.607421875
 40
0.607421875
 40
0.609375
 40
0.609375
 40
0.61328125
 40
0.61328125
 40
0.6171875
 40
0.6171875
 40
0.62109375
 40
0.62109375
 40
0.623046875
 40
0.623046875
 40
0.625
 40
0.625
 40
0.62890625
 40
0.62890625
 40
0.6328125
 40
0.6328125
 40
0.640625
 40
0.640625
 40
0.64453125
 40
0.64453125
 40
0.6484375
 40
0.6484375
 40
0.65625
 40
0.65625
 40
0.66015625
 40
0.66015625
 40
0.662109375
 40
0.662109375
 40
0.6640625
 40
0.6640625
 40
0.66796875
 40
0.66796875
 40
0.671875
 40
0.671875
 40
0.67578125
 40
0.67578125
 40
0.677734375
 40
0.677734375
 40
0.6796875
 40
0.6796875
 40
0.68359375
 40
0.68359375
 40
0.6875
 40
0.6875
 40
0.69140625
 40
0.69140625
 40
0.6953125
 40
0.6953125
 40
0.69921875
 40
0.69921875
 40
0.703125
 40
0.703125
 40
0.7109375
 40
0.7109375
 40
0.71484375
 40
0.71484375
 40
0.71875
 40
0.71875
 40
0.7265625
 40
0.7265625
 40
0.73046875
 40
0.73046875
 40
0.734375
 40
0.734375
 40
0.73828125
 40
0.73828125
 40
0.7421875
 40
0.7421875
 40
0.74609375
 40
0.74609375
 40
0.75
 40
0.75
 40
0.75390625
 40
0.75390625
 40
0.7578125
 40
0.7578125
 40
0.76171875
 40
0.76171875
 40
0.765625
 40
0.765625
 40
0.76953125
 40
0.76953125
 40
0.7734375
 40
0.7734375
 40
0.77734375
 40
0.77734375
 40
0.78125
 40
0.78125
 40
0.78515625
 40
0.78515625
 40
0.7890625
 40
0.7890625
 40
0.79296875
 40
0.79296875
 40
0.796875
 40
0.796875
 40
0.80078125
 40
0.80078125
 40
0.8046875
 40
0.8046875
 40
0.8125
 40
0.8125
 40
0.8203125
 40
0.8203125
 40
0.828125
 40
0.828125
 40
0.8359375
 40
0.8359375
 40
0.84375
 40
0.84375
 40
0.8515625
 40
0.8515625
 40
0.859375
 40
0.859375
 40
0.8671875
 40
0.8671875
 40
0.875
 40
0.875
 40
0.8828125
 40
0.8828125
 40
0.890625
 40
0.890625
 40
0.8984375
 40
0.8984375
 40
0.90625
 40
0.90625
 40
0.9140625
 40
0.9140625
 40
0.921875
 40
0.921875
 40
0.9296875
 40
0.9296875
 40
0.9375
 40
0.9375
 40
0.9453125
 40
0.9453125
 40
0.953125
 40
0.953125
 40
0.9609375
 40
0.9609375
 40
0.96484375
 40
0.96484375
 40
0.96875
 40
0.96875
 40
0.97265625
 40
0.97265625
 40
0.974609375
 40
0.974609375
 40
0.9765625
 40
0.9765625
 40
0.98046875
 40
0.98046875
 40
0.982421875
 40
0.982421875
 40
0.984375
 40
0.984375
 40
0.98828125
 40
0.98828125
 40
0.990234375
 40
0.990234375
 40
0.9912109375
 40
0.9912109375
 40
0.99169921875
 40
0.99169921875
 40
0.9921875
 40
0.9921875
 40
1.0
 40
1.0
 40
1.0
 40
1.0
 10
5.631132955023997
 20
8.140590924107153
 30
0.0
 10
5.44508998208391
 20
8.306864550236972
 30
0.0
 10
5.252822586062122
 20
8.465956246207565
 30
0.0
 10
4.821394959840402
 20
8.79613645192036
 30
0.0
 10
4.57788615731682
 20
8.965784243511807
 30
0.0
 10
4.08172803341554
 20
9.280226024240275
 30
0.0
 10
3.827400751169808
 20
9.426300626965979
 30
0.0
 10
3.306249746088158
 20
9.696157257140332
 30
0.0
 10
3.037403747244903
 20
9.8207734257738
 30
0.0
 10
2.495304412997557
 20
10.0443766230244
 30
0.0
 10
2.219847236843358
 20
10.14449151959765
 30
0.0
 10
1.66011786647391
 20
10.32134790864007
 30
0.0
 10
1.373240993309789
 20
10.39867637290259
 30
0.0
 10
0.8010909447159815
 20
10.52761201015009
 30
0.0
 10
0.5126687853261288
 20
10.58002605662562
 30
0.0
 10
-0.0688698036394745
 20
10.6607466052802
 30
0.0
 10
-0.3641271223891498
 20
10.68917087255091
 30
0.0
 10
-0.9507724733786999
 20
10.72144080242929
 30
0.0
 10
-1.244200522004327
 20
10.72558349503197
 30
0.0
 10
-1.831267365517286
 20
10.70988433556435
 30
0.0
 10
-2.127390143021504
 20
10.68977328525876
 30
0.0
 10
-2.709910513824097
 20
10.62664343291568
 30
0.0
 10
-2.999771662000501
 20
10.58334269447099
 30
0.0
 10
-3.576695883903526
 20
10.47326959303533
 30
0.0
 10
-3.865833377671903
 20
10.4059271235157
 30
0.0
 10
-4.433012610591846
 20
10.25005098604475
 30
0.0
 10
-4.712927423732258
 20
10.16114567162459
 30
0.0
 10
-5.26540744337396
 20
9.961400551414911
 30
0.0
 10
-5.539929197943457
 20
9.849674431541894
 30
0.0
 10
-6.073796908170504
 20
9.607832956760468
 30
0.0
 10
-6.335950785572954
 20
9.476570894844821
 30
0.0
 10
-6.850698584955711
 20
9.193364121963661
 30
0.0
 10
-7.104948001336343
 20
9.04033527659322
 30
0.0
 10
-7.597264901074157
 20
8.71793147442218
 30
0.0
 10
-7.836778748673397
 20
8.547742024388663
 30
0.0
 10
-8.302517239332545
 20
8.189388026425636
 30
0.0
 10
-8.53022384567582
 20
7.999892883202675
 30
0.0
 10
-8.96642000068958
 20
7.608249880034568
 30
0.0
 10
-9.177117142398254
 20
7.404264421981169
 30
0.0
 10
-9.583709554219185
 20
6.979965592935675
 30
0.0
 10
-9.780855992515452
 20
6.758135658785723
 30
0.0
 10
-10.15534232477555
 20
6.304214130178557
 30
0.0
 10
-10.3338976910971
 20
6.070816483412584
 30
0.0
 10
-10.67363282412322
 20
5.591147424955854
 30
0.0
 10
-10.8358670512054
 20
5.343128571162373
 30
0.0
 10
-11.5930545837977
 20
4.088324310910257
 30
0.0
 10
-12.05453708406073
 20
2.987605414801826
 30
0.0
 10
-12.50087506664175
 20
1.280644398668506
 30
0.0
 10
-12.60898152619914
 20
0.7048326971779083
 30
0.0
 10
-12.71013191358081
 20
-0.1691218992272264
 30
0.0
 10
-12.7336804923823
 20
-0.4621462720571438
 30
0.0
 10
-12.75375103509592
 20
-0.9042420923443296
 30
0.0
 10
-12.75789916175236
 20
-1.052033909280443
 30
0.0
 10
-12.76111130656904
 20
-1.348470630166773
 30
0.0
 10
-12.76012874824887
 20
-1.499111839841274
 30
0.0
 10
-12.7429714502116
 20
-2.234487548506193
 30
0.0
 10
-12.6893577113316
 20
-2.818231095362103
 30
0.0
 10
-12.54910525233632
 20
-3.687010885531934
 30
0.0
 10
-12.49238245755868
 20
-3.975464893902871
 30
0.0
 10
-12.35899291777831
 20
-4.550094400606735
 30
0.0
 10
-12.28143839652064
 20
-4.839190630089331
 30
0.0
 10
-12.02418556493961
 20
-5.685537166582074
 30
0.0
 10
-11.81662866239065
 20
-6.234595491123792
 30
0.0
 10
-11.32940482763619
 20
-7.302366740633668
 30
0.0
 10
-11.04787701470495
 20
-7.824047556521275
 30
0.0
 10
-10.42015488208885
 20
-8.825192225045143
 30
0.0
 10
-10.07652159024389
 20
-9.301938423742182
 30
0.0
 10
-9.329710555480167
 20
-10.20777855000648
 30
0.0
 10
-8.923908396058769
 20
-10.63932909279214
 30
0.0
 10
-8.06325729215269
 20
-11.44495144636004
 30
0.0
 10
-7.610184388841655
 20
-11.81834123452066
 30
0.0
 10
-6.896454006838111
 20
-12.3342938338266
 30
0.0
 10
-6.652857041664096
 20
-12.49892268643941
 30
0.0
 10
-6.154289435637071
 20
-12.81346969735336
 30
0.0
 10
-5.89655422244937
 20
-12.96489989822326
 30
0.0
 10
-5.122875503375912
 20
-13.38805220395293
 30
0.0
 10
-4.591913437902272
 20
-13.63696357763471
 30
0.0
 10
-3.772705960554808
 20
-13.96054539295038
 30
0.0
 10
-3.495842738249485
 20
-14.06010845718777
 30
0.0
 10
-2.934528167259841
 20
-14.24263950392688
 30
0.0
 10
-2.647292753602502
 20
-14.32632870297711
 30
0.0
 10
-1.79090871290008
 20
-14.54817637823327
 30
0.0
 10
-1.214354759918998
 20
-14.66077257600661
 30
0.0
 10
-0.0499843355979045
 20
-14.81536046675844
 30
0.0
 10
0.5405808693221443
 20
-14.85738314391466
 30
0.0
 10
1.72197886320103
 20
-14.8707000567213
 30
0.0
 10
2.309352700588236
 20
-14.84259078309513
 30
0.0
 10
3.185425717340692
 20
-14.74827527761166
 30
0.0
 10
3.476618766370118
 20
-14.70814484327646
 30
0.0
 10
4.057342284652852
 20
-14.61050010959131
 30
0.0
 10
4.348938332673916
 20
-14.55251211929733
 30
0.0
 10
5.208839134466396
 20
-14.35531449655752
 30
0.0
 10
5.772185443293484
 20
-14.19104600960345
 30
0.0
 10
6.60232356798227
 20
-13.89543817148106
 30
0.0
 10
6.876556053119891
 20
-13.78870137415839
 30
0.0
 10
7.420060577211182
 20
-13.55882607694926
 30
0.0
 10
7.69179945979487
 20
-13.43447317083843
 30
0.0
 10
8.48477437648991
 20
-13.04409833600664
 30
0.0
 10
8.996074818172897
 20
-12.75492864162714
 30
0.0
 10
9.983976695978125
 20
-12.11874964388482
 30
0.0
 10
10.46277177358185
 20
-11.76994469498366
 30
0.0
 10
11.37688835730262
 20
-11.02167777035146
 30
0.0
 10
11.81056616069376
 20
-10.62427926738977
 30
0.0
 10
12.42601213307658
 20
-9.99328395197884
 30
0.0
 10
12.62531566842021
 20
-9.777135920013798
 30
0.0
 10
13.01223249487283
 20
-9.333207335760921
 30
0.0
 10
13.20110595402118
 20
-9.103807296195555
 30
0.0
 10
13.74262995687819
 20
-8.40787532068044
 30
0.0
 10
14.07690859013142
 20
-7.925534073148782
 30
0.0
 10
14.53822048703409
 20
-7.174442306068928
 30
0.0
 10
14.68530677717212
 20
-6.919481734411915
 30
0.0
 10
14.96611067312245
 20
-6.400367292503764
 30
0.0
 10
15.10080971889796
 20
-6.134137096002011
 30
0.0
 10
15.47896518995668
 20
-5.334114516109268
 30
0.0
 10
15.70106673399139
 20
-4.78974703280891
 30
0.0
 10
16.08526561538524
 20
-3.678973872797797
 30
0.0
 10
16.2479586515733
 20
-3.109964231879955
 30
0.0
 10
16.5109577219582
 20
-1.96032261346223
 30
0.0
 10
16.61150270891196
 20
-1.381101153016692
 30
0.0
 10
16.71588836698457
 20
-0.5056679854933699
 30
0.0
 10
16.74294494928244
 20
-0.2127567668430934
 30
0.0
 10
16.78158083975882
 20
0.3752659960757972
 30
0.0
 10
16.79319067819323
 20
0.6727321859086243
 30
0.0
 10
16.80462110078213
 20
1.554303370449337
 30
0.0
 10
16.78133028364225
 20
2.140771701907959
 30
0.0
 10
16.67292645163088
 20
3.311216781688168
 30
0.0
 10
16.58717695713295
 20
3.898390248085895
 30
0.0
 10
16.35640168891115
 20
5.057458725439742
 30
0.0
 10
16.21198021769058
 20
5.628042761222561
 30
0.0
 10
15.86506960103012
 20
6.75131042699999
 30
0.0
 10
15.66148411902904
 20
7.306568811470799
 30
0.0
 10
15.20063082705226
 20
8.3888861567194
 30
0.0
 10
14.94342890933383
 20
8.916799525593369
 30
0.0
 10
14.51746312516113
 20
9.688801623278824
 30
0.0
 10
14.36878071250439
 20
9.94282432990306
 30
0.0
 10
14.05802825132588
 20
10.44424709127636
 30
0.0
 10
13.89492191796574
 20
10.693145958859
 30
0.0
 10
13.39173917311803
 20
11.42091570679277
 30
0.0
 10
13.03348065187246
 20
11.88729769798076
 30
0.0
 10
12.27135689335377
 20
12.78246599882103
 30
0.0
 10
11.86569167590957
 20
13.21298192045442
 30
0.0
 10
11.01595444567795
 20
14.02949963426108
 30
0.0
 10
10.57257921328728
 20
14.41548364236467
 30
0.0
 10
9.879756438788956
 20
14.96104738132042
 30
0.0
 10
9.644188859637465
 20
15.13733324877239
 30
0.0
 10
9.16380039269705
 20
15.47876755927648
 30
0.0
 10
8.917318630177657
 20
15.6449785180793
 30
0.0
 10
8.173958628046122
 20
16.12053016338365
 30
0.0
 10
7.664290471370166
 20
16.41250726565721
 30
0.0
 10
6.616764514175053
 20
16.94634681434565
 30
0.0
 10
6.076162264305344
 20
17.1892872711593
 30
0.0
 10
4.977745918124937
 20
17.6207414873328
 30
0.0
 10
4.420501901197033
 20
17.80944182027133
 30
0.0
 10
3.572582110048625
 20
18.05195215695679
 30
0.0
 10
3.287933218706398
 20
18.12603224206489
 30
0.0
 10
2.714617514103092
 20
18.26067902470698
 30
0.0
 10
2.424119519512451
 20
18.32158471118654
 30
0.0
 10
1.557585740839629
 20
18.48199775559062
 30
0.0
 10
0.9759242488972115
 20
18.56125404036917
 30
0.0
 10
-0.1953433473086936
 20
18.66439512027798
 30
0.0
 10
-0.7878926256773069
 20
18.68826106893989
 30
0.0
 10
-1.969163098315103
 20
18.68069686248872
 30
0.0
 10
-2.557008003978638
 20
18.64953092023207
 30
0.0
 10
-3.727117153994979
 20
18.53243135765665
 30
0.0
 10
-4.312133548658074
 20
18.44595954800175
 30
0.0
 10
-5.465577075432386
 20
18.22040100797435
 30
0.0
 10
-6.035995588412773
 20
18.08115460087
 30
0.0
 10
-7.164226113560006
 20
17.74972751247998
 30
0.0
 10
-7.724422295350273
 20
17.55660161776719
 30
0.0
 10
-8.822671479623587
 20
17.12119640786882
 30
0.0
 10
-9.359538620463168
 20
16.87955667910804
 30
0.0
 10
-10.40875799954818
 20
16.34840297396329
 30
0.0
 10
-10.92299337112581
 20
16.05770868090695
 30
0.0
 10
-11.91941667835811
 20
15.43316711386055
 30
0.0
 10
-12.40255693911715
 20
15.09908708483199
 30
0.0
 10
-13.33869467492102
 20
14.38730853576414
 30
0.0
 10
-13.79336803753424
 20
14.0080811501811
 30
0.0
 10
-14.66586842677284
 20
13.2121233501793
 30
0.0
 10
-15.08269858359206
 20
12.79642924733427
 30
0.0
 10
-15.87751882163033
 20
11.92961063595597
 30
0.0
 10
-16.2567554702593
 20
11.47685620792603
 30
0.0
 10
-16.9714024222774
 20
10.54243662416453
 30
0.0
 10
-17.30745301095775
 20
10.06048072911892
 30
0.0
 10
-17.93700841366105
 20
9.067076732698009
 30
0.0
 10
-18.23146581853677
 20
8.553787378564012
 30
0.0
 10
-18.77402449021974
 20
7.505081475001071
 30
0.0
 10
-19.02151248412762
 20
6.970978803587447
 30
0.0
 10
-19.46890578807621
 20
5.883274021495891
 30
0.0
 10
-19.66940249726959
 20
5.327780148349044
 30
0.0
 10
-20.02044763517842
 20
4.204860012666717
 30
0.0
 10
-20.1714822245096
 20
3.636976206636151
 30
0.0
 10
-20.4245754439255
 20
2.488361118196214
 30
0.0
 10
-20.52687823619138
 20
1.90578170057503
 30
0.0
 10
-20.68153121275202
 20
0.7351679298011101
 30
0.0
 10
-20.73371049097045
 20
0.1487769569001034
 30
0.0
 10
-20.78777462728353
 20
-1.026173163930004
 30
0.0
 10
-20.78958456494535
 20
-1.616631360006712
 30
0.0
 10
-20.72002227034215
 20
-3.379863921893336
 30
0.0
 10
-20.5741037496822
 20
-4.550336764766675
 30
0.0
 10
-20.20898111158425
 20
-6.28394334754715
 30
0.0
 10
-20.06370219012808
 20
-6.854566117190066
 30
0.0
 10
-19.72600159636869
 20
-7.981319473908076
 30
0.0
 10
-19.53291314085102
 20
-8.539144499634473
 30
0.0
 10
-18.88693434731422
 20
-10.18071467105413
 30
0.0
 10
-18.36552193386754
 20
-11.23867203389672
 30
0.0
 10
-17.45464826747654
 20
-12.75865093538494
 30
0.0
 10
-17.1315277875481
 20
-13.2510236808586
 30
0.0
 10
-16.44629497876168
 20
-14.20719539509446
 30
0.0
 10
-16.0829609720794
 20
-14.67243342848803
 30
0.0
 10
-15.32218782108251
 20
-15.56857946003817
 30
0.0
 10
-14.9240767053321
 20
-16.00059129531969
 30
0.0
 10
-14.09240539332735
 20
-16.83249260489566
 30
0.0
 10
-13.65730877260314
 20
-17.23368884437652
 30
0.0
 10
-12.75781214853027
 20
-17.99873190160548
 30
0.0
 10
-12.29433714241085
 20
-18.36194991054819
 30
0.0
 10
-11.33993374200604
 20
-19.04977888909004
 30
0.0
 10
-10.8469688219262
 20
-19.37562192096565
 30
0.0
 10
-9.841731696778323
 20
-19.98377269626745
 30
0.0
 10
-9.327421868239217
 20
-20.26740738628724
 30
0.0
 10
-8.275419679230659
 20
-20.79379537106461
 30
0.0
 10
-7.735193293797431
 20
-21.03757407983851
 30
0.0
 10
-6.641494090855749
 20
-21.48014844605878
 30
0.0
 10
-6.087582737739069
 20
-21.67931365052583
 30
0.0
 10
-4.965636528214025
 20
-22.03340010217375
 30
0.0
 10
-4.395140433158792
 20
-22.18888968985155
 30
0.0
 10
-3.249869694344127
 20
-22.45335154593325
 30
0.0
 10
-2.672678664028004
 20
-22.56285772260925
 30
0.0
 10
-1.509185281578182
 20
-22.73642057323155
 30
0.0
 10
-0.9199303915674681
 20
-22.80068378422101
 30
0.0
 10
0.2558805587634801
 20
-22.88293455529758
 30
0.0
 10
0.8439562053037362
 20
-22.90126959976519
 30
0.0
 10
2.020447841133812
 20
-22.89235900655906
 30
0.0
 10
2.61080937012561
 20
-22.86494797766533
 30
0.0
 10
3.78409061205086
 20
-22.76520680261646
 30
0.0
 10
4.367648651542891
 20
-22.69276374997456
 30
0.0
 10
5.528599567585767
 20
-22.50273271445581
 30
0.0
 10
6.108388868406674
 20
-22.38455988415041
 30
0.0
 10
7.824130480837233
 20
-21.96583308245312
 30
0.0
 10
8.944717511911334
 20
-21.59984900286817
 30
0.0
 10
12.21737137437933
 20
-20.24939733688667
 30
0.0
 10
14.24585574328443
 20
-19.02244041458321
 30
0.0
 10
16.51685726633227
 20
-17.13704917189995
 30
0.0
 10
16.95567459338621
 20
-16.74433415528358
 30
0.0
 10
17.80254329238284
 20
-15.92763058589141
 30
0.0
 10
18.21196631173529
 20
-15.5021063583803
 30
0.0
 10
18.9945598056899
 20
-14.6259270661399
 30
0.0
 10
19.36932883414958
 20
-14.17361666450081
 30
0.0
 10
20.0858114540337
 20
-13.24055435018485
 30
0.0
 10
20.42900006603974
 20
-12.75755727579046
 30
0.0
 10
21.07642177069015
 20
-11.77210226283396
 30
0.0
 10
21.38141282701701
 20
-11.26878010438301
 30
0.0
 10
21.95395534767406
 20
-10.24094648353569
 30
0.0
 10
22.22236063645617
 20
-9.714598893576149
 30
0.0
 10
22.71831632421603
 20
-8.648058919964393
 30
0.0
 10
22.94649106958249
 20
-8.106397203781443
 30
0.0
 10
23.36323436328846
 20
-7.006290312661396
 30
0.0
 10
23.55256753023857
 20
-6.44527699331648
 30
0.0
 10
24.05657002388487
 20
-4.75247071359743
 30
0.0
 10
24.31065801881096
 20
-3.601835699983057
 30
0.0
 10
24.65339523433463
 20
-1.267346695927912
 30
0.0
 10
24.74035253985083
 20
-0.0908298010605664
 30
0.0
 10
24.74540205421557
 20
2.260958239095087
 30
0.0
 10
24.66397479189287
 20
3.437490229862446
 30
0.0
 10
24.41772827670876
 20
5.190273272480468
 30
0.0
 10
24.31537399053829
 20
5.770066202509093
 30
0.0
 10
24.07012118931247
 20
6.920715894211578
 30
0.0
 10
23.92664892402973
 20
7.49356422528442
 30
0.0
 10
23.60145516548897
 20
8.622358441479419
 30
0.0
 10
23.4190533577419
 20
9.180727223947855
 30
0.0
 10
23.01463988529442
 20
10.28540813762659
 30
0.0
 10
22.79147589826638
 20
10.83429486921579
 30
0.0
 10
22.06948308571793
 20
12.44742248482285
 30
0.0
 10
21.51434816285627
 20
13.4874754961584
 30
0.0
 10
20.57674809735007
 20
14.9852228456278
 30
0.0
 10
20.24751859558937
 20
15.47270681360511
 30
0.0
 10
19.55566729888406
 20
16.42414445253474
 30
0.0
 10
19.19175478057733
 20
16.88963680707165
 30
0.0
 10
18.05767312605388
 20
18.2415863236374
 30
0.0
 10
17.24165104024052
 20
19.08908820672235
 30
0.0
 10
15.48988390305017
 20
20.67630399570185
 30
0.0
 10
14.56758954767015
 20
21.4044577675861
 30
0.0
 10
13.11453183442287
 20
22.39850724150422
 30
0.0
 10
12.61857656664423
 20
22.71349353549222
 30
0.0
 10
11.85723961993195
 20
23.16142768049716
 30
0.0
 10
11.60055996352048
 20
23.30664817950263
 30
0.0
 10
11.08139930234942
 20
23.58890741218788
 30
0.0
 10
10.81692006362343
 20
23.72694719806061
 30
0.0
 10
9.50000283878728
 20
24.38668119218056
 30
0.0
 10
8.412895632069421
 20
24.84283143163385
 30
0.0
 10
6.742246517299501
 20
25.4160427084601
 30
0.0
 10
6.17985160053881
 20
25.58814480372953
 30
0.0
 10
5.044038010009325
 20
25.89441233358975
 30
0.0
 10
4.46858099503841
 20
26.02898336260465
 30
0.0
 10
2.73790436182625
 20
26.3733578920867
 30
0.0
 10
1.569752108168292
 20
26.52617453032068
 30
0.0
 10
-0.785374746489142
 20
26.67763749857802
 30
0.0
 10
-1.965278139506288
 20
26.67545174490319
 30
0.0
 10
-3.723176983732593
 20
26.55634517086154
 30
0.0
 10
-4.307639519971596
 20
26.49735229987193
 30
0.0
 10
-5.473557102110068
 20
26.34078519860795
 30
0.0
 10
-6.057579703141636
 20
26.24269358506562
 30
0.0
 10
-7.789730939934446
 20
25.89365100511917
 30
0.0
 10
-8.92639107084666
 20
25.58667367621422
 30
0.0
 10
-11.15850402723454
 20
24.82585619372698
 30
0.0
 10
-12.24299866688664
 20
24.37605942495818
 30
0.0
 10
-13.82239786855203
 20
23.59728223051717
 30
0.0
 10
-14.34097380947169
 20
23.32034282548888
 30
0.0
 10
-15.36234477204011
 20
22.73177000166969
 30
0.0
 10
-15.86763016403573
 20
22.41848114633672
 30
0.0
 10
-17.34487273903498
 20
21.43650617894635
 30
0.0
 10
-18.28078770334728
 20
20.72459439663169
 30
0.0
 10
-19.6112900212849
 20
19.57083401707807
 30
0.0
 10
-20.04256243917564
 20
19.17193177287993
 30
0.0
 10
-20.67112853387905
 20
18.55210523006232
 30
0.0
 10
-20.87759347675807
 20
18.34191751970304
 30
0.0
 10
-21.28440918513854
 20
17.9143843734777
 30
0.0
 10
-21.48602021999337
 20
17.69562772095498
 30
0.0
 10
-22.46618725728979
 20
16.59806231114082
 30
0.0
 10
-23.19334896241857
 20
15.67250717552623
 30
0.0
 10
-24.53196671909043
 20
13.72894927695757
 30
0.0
 10
-25.13818596295529
 20
12.71776814600076
 30
0.0
 10
-25.94770326170634
 20
11.1519073447419
 30
0.0
 10
-26.20107045981397
 20
10.62172323467489
 30
0.0
 10
-26.67486105307714
 20
9.544893995246088
 30
0.0
 10
-26.8959794378364
 20
8.996358059430687
 30
0.0
 10
-27.50574895006365
 20
7.337403561763987
 30
0.0
 10
-27.84268782340324
 20
6.20934162782389
 30
0.0
 10
-28.37639921525567
 20
3.913412838615651
 30
0.0
 10
-28.571082325318
 20
2.755510967930805
 30
0.0
 10
-28.75484811161566
 20
1.003751947782453
 30
0.0
 10
-28.79806022724891
 20
0.4173479053794889
 30
0.0
 10
-28.84839816558346
 20
-0.760428917466803
 30
0.0
 10
-28.85547531067095
 20
-1.354449558284695
 30
0.0
 10
-28.82286937221842
 20
-3.128077425551524
 30
0.0
 10
-28.72970910234232
 20
-4.300649998389138
 30
0.0
 10
-28.48283423116652
 20
-6.044739849635157
 30
0.0
 10
-28.38268686304766
 20
-6.623641632048763
 30
0.0
 10
-28.14668063802271
 20
-7.776522194205837
 30
0.0
 10
-28.00994629078576
 20
-8.353756083398512
 30
0.0
 10
-27.55142895787935
 20
-10.0585425902761
 30
0.0
 10
-27.17757445956915
 20
-11.174804449851
 30
0.0
 10
-26.29491907613095
 20
-13.36331667455588
 30
0.0
 10
-25.78856352710323
 20
-14.42845231568123
 30
0.0
 10
-24.93759680550968
 20
-15.97139952568599
 30
0.0
 10
-24.63846798137004
 20
-16.47708325998033
 30
0.0
 10
-24.00926383254049
 20
-17.47118672382114
 30
0.0
 10
-23.67772739488585
 20
-17.961635181365
 30
0.0
 10
-22.64546500888495
 20
-19.3949121788906
 30
0.0
 10
-21.90216255101185
 20
-20.30727377943655
 30
0.0
 10
-20.30614559519175
 20
-22.04476642876635
 30
0.0
 10
-19.46137768803198
 20
-22.86140994028368
 30
0.0
 10
-17.67832301521297
 20
-24.3904913370232
 30
0.0
 10
-16.7380765450982
 20
-25.10424292873913
 30
0.0
 10
-14.77190356419141
 20
-26.42228565990087
 30
0.0
 10
-13.75765605945349
 20
-27.01950812771532
 30
0.0
 10
-12.18954328091981
 20
-27.82264348278738
 30
0.0
 10
-11.65904876783746
 20
-28.07490554336981
 30
0.0
 10
-10.58247923453048
 20
-28.54853021565144
 30
0.0
 10
-10.0334688814315
 20
-28.7709841087431
 30
0.0
 10
-8.38067905866733
 20
-29.38544892633855
 30
0.0
 10
-7.252806886489047
 20
-29.73130965138527
 30
0.0
 10
-4.963598861146193
 20
-30.29092873632253
 30
0.0
 10
-3.805385584071419
 20
-30.5040504965748
 30
0.0
 10
-1.468026618572601
 20
-30.7961329231376
 30
0.0
 10
-0.296431640698463
 20
-30.87432108350199
 30
0.0
 10
1.465334068799836
 20
-30.88982374467307
 30
0.0
 10
2.05331817908045
 20
-30.8780280351675
 30
0.0
 10
3.230744147204045
 20
-30.82051008969788
 30
0.0
 10
3.822405700834492
 20
-30.77455208680903
 30
0.0
 10
5.58625880834457
 20
-30.58720289000343
 30
0.0
 10
6.747388252680805
 20
-30.39673656882605
 30
0.0
 10
8.466923478179435
 20
-30.0126868020995
 30
0.0
 10
9.03640872984469
 20
-29.86827849903057
 30
0.0
 10
10.16799291950663
 20
-29.54667846457255
 30
0.0
 10
10.7329090903146
 20
-29.36851007847659
 30
0.0
 10
13.5108518320701
 20
-28.40547612426516
 30
0.0
 10
15.64981791900621
 20
-27.38152276885155
 30
0.0
 10
18.64439473869146
 20
-25.5100133092446
 30
0.0
 10
19.60355793123335
 20
-24.83303297543
 30
0.0
 10
20.98375909901639
 20
-23.73784670378969
 30
0.0
 10
21.43406888477244
 20
-23.35949865142318
 30
0.0
 10
22.31517391594127
 20
-22.57623062305069
 30
0.0
 10
22.74780713380156
 20
-22.16948503739355
 30
0.0
 10
24.84380714776973
 20
-20.0875833965208
 30
0.0
 10
26.31857660340685
 20
-18.2557426140192
 30
0.0
 10
28.22172889794175
 20
-15.26785305652626
 30
0.0
 10
28.79844240347349
 20
-14.2429608314746
 30
0.0
 10
29.57700677280126
 20
-12.66222893506608
 30
0.0
 10
29.82211058108222
 20
-12.12808604312474
 30
0.0
 10
30.28348290132084
 20
-11.04533573963172
 30
0.0
 10
30.50075028654112
 20
-10.49397771618981
 30
0.0
 10
31.1033062581414
 20
-8.834710537789928
 30
0.0
 10
31.44327788322696
 20
-7.711004129887644
 30
0.0
 10
31.86063678688336
 20
-5.999152084580666
 30
0.0
 10
31.98432333244018
 20
-5.424152663902748
 30
0.0
 10
32.20083024556315
 20
-4.265389678062397
 30
0.0
 10
32.29397957199157
 20
-3.679126015683861
 30
0.0
 10
32.67927117053448
 20
-0.7508983147409103
 30
0.0
 10
32.73272403759118
 20
1.600259292996807
 30
0.0
 10
32.43166183063209
 20
5.128968900384766
 30
0.0
 10
32.26949411675046
 20
6.293688618277903
 30
0.0
 10
31.93352207858512
 20
8.023492968263332
 30
0.0
 10
31.80607798797286
 20
8.597215213782766
 30
0.0
 10
31.52028298430071
 20
9.738901295870203
 30
0.0
 10
31.3610925201297
 20
10.30959473903861
 30
0.0
 10
30.8421982006119
 20
11.99665981551428
 30
0.0
 10
30.43786326554573
 20
13.09887690237189
 30
0.0
 10
29.74375277986502
 20
14.71846308646904
 30
0.0
 10
29.4977812707912
 20
15.25270190680321
 30
0.0
 10
28.97663555828309
 20
16.30993306540847
 30
0.0
 10
28.70038953485976
 20
16.83483904525126
 30
0.0
 10
27.25687088173218
 20
19.41211632359043
 30
0.0
 10
25.89802160670811
 20
21.3318506424532
 30
0.0
 10
23.56124406205942
 20
23.98973577639445
 30
0.0
 10
22.74015732263054
 20
24.83114066554178
 30
0.0
 10
21.44528587666828
 20
26.02641276601316
 30
0.0
 10
21.00312183854437
 20
26.41369759396202
 30
0.0
 10
20.09771331669022
 20
27.16598883877651
 30
0.0
 10
19.63214623393964
 20
27.53272999217338
 30
0.0
 10
18.21775991140052
 20
28.58912741655185
 30
0.0
 10
17.24175073670145
 20
29.24199793742856
 30
0.0
 10
15.22356246795735
 20
30.44495012176408
 30
0.0
 10
14.17849240257988
 20
30.99637256332712
 30
0.0
 10
10.96137315542315
 20
32.48841193326401
 30
0.0
 10
8.736719310591083
 20
33.25396181500174
 30
0.0
 10
5.293408654978939
 20
34.05542248464845
 30
0.0
 10
4.136812167817523
 20
34.26329517526388
 30
0.0
 10
2.38867803413935
 20
34.48618291228684
 30
0.0
 10
1.803760089090617
 20
34.54565860814445
 30
0.0
 10
0.6295110646811349
 20
34.63496956689296
 30
0.0
 10
0.0374773248581448
 20
34.664873431626
 30
0.0
 10
-1.729027633305408
 20
34.70971276532205
 30
0.0
 10
-2.903564960325631
 20
34.67993218138583
 30
0.0
 10
-5.246374324188451
 20
34.50102406737956
 30
0.0
 10
-6.416524184405806
 20
34.35156001842847
 30
0.0
 10
-8.743047321163854
 20
33.93463104991663
 30
0.0
 10
-9.889643869093417
 20
33.66941503114643
 30
0.0
 10
-12.14950692405363
 20
33.02547992457744
 30
0.0
 10
-13.26555829248528
 20
32.64565494248419
 30
0.0
 10
-15.45319154284564
 20
31.77692548644702
 30
0.0
 10
-16.52172432578866
 20
31.28954020391046
 30
0.0
 10
-18.08659773684746
 20
30.47893144832866
 30
0.0
 10
-18.60190124664111
 20
30.19547339117189
 30
0.0
 10
-19.61986634510982
 20
29.60204699959938
 30
0.0
 10
-20.1243103024689
 20
29.29091796351292
 30
0.0
 10
-22.59710159962768
 20
27.6806041066403
 30
0.0
 10
-24.4311378294005
 20
26.20776324016736
 30
0.0
 10
-26.95810995626765
 20
23.7292549308934
 30
0.0
 10
-27.756347906342
 20
22.86564793734988
 30
0.0
 10
-28.88757569313147
 20
21.51408111135631
 30
0.0
 10
-29.25363009900763
 20
21.0541994467454
 30
0.0
 10
-29.96369586465257
 20
20.11571733896415
 30
0.0
 10
-30.30905881143436
 20
19.63513629428687
 30
0.0
 10
-31.30397356054079
 20
18.17719860145752
 30
0.0
 10
-31.9175692359791
 20
17.17582626901949
 30
0.0
 10
-33.0453989389238
 20
15.11425386303986
 30
0.0
 10
-33.56058055796453
 20
14.05183120456876
 30
0.0
 10
-34.95139739398273
 20
10.78965712707703
 30
0.0
 10
-35.65986619912369
 20
8.545520678708801
 30
0.0
 10
-36.39139763095319
 20
5.089732242179651
 30
0.0
 10
-36.57897600107113
 20
3.929922833904561
 30
0.0
 10
-36.77594539551021
 20
2.178388827343871
 30
0.0
 10
-36.82753550020026
 20
1.592574176132299
 30
0.0
 10
-36.90258298933442
 20
0.4170049089931339
 30
0.0
 10
-36.92607136313798
 20
-0.1747023337883883
 30
0.0
 10
-36.97287153794635
 20
-3.123562190946747
 30
0.0
 10
-36.78365072248373
 20
-5.469036234545106
 30
0.0
 10
-36.16225553083683
 20
-8.953215678372986
 30
0.0
 10
-35.90104901312284
 20
-10.09992538093943
 30
0.0
 10
-35.42812705580433
 20
-11.79796476672483
 30
0.0
 10
-35.25696770657358
 20
-12.36030703397591
 30
0.0
 10
-34.88761161452955
 20
-13.47764984578999
 30
0.0
 10
-34.68856440650747
 20
-14.03486509285662
 30
0.0
 10
-34.0559694833203
 20
-15.68221003500258
 30
0.0
 10
-33.58331451150276
 20
-16.75729733331218
 30
0.0
 10
-32.53615452181547
 20
-18.86118660368932
 30
0.0
 10
-31.9602469126617
 20
-19.89224387033695
 30
0.0
 10
-30.7121920134381
 20
-21.89905189906975
 30
0.0
 10
-30.04443859790819
 20
-22.86837273353576
 30
0.0
 10
-28.62147983501217
 20
-24.73884804266703
 30
0.0
 10
-27.86465026650379
 20
-25.64176526652665
 30
0.0
 10
-26.27003608221992
 20
-27.37238235766765
 30
0.0
 10
-25.43461012275721
 20
-28.19802247400418
 30
0.0
 10
-23.68752046919022
 20
-29.76996584820931
 30
0.0
 10
-22.77302291685785
 20
-30.51837748646383
 30
0.0
 10
-19.932176807267
 20
-32.63195683120998
 30
0.0
 10
-17.92173177798978
 20
-33.85497419824678
 30
0.0
 10
-14.74381425337971
 20
-35.40431793997907
 30
0.0
 10
-13.66459110360761
 20
-35.87038633189226
 30
0.0
 10
-12.01588041659632
 20
-36.49391963676567
 30
0.0
 10
-11.4613308605337
 20
-36.68916919122408
 30
0.0
 10
-10.34227309429076
 20
-37.0544785391421
 30
0.0
 10
-9.775670566585255
 20
-37.22511741731429
 30
0.0
 10
-8.07349090744324
 20
-37.69577490205729
 30
0.0
 10
-6.927832636515375
 20
-37.95653897323851
 30
0.0
 10
-4.614772431659938
 20
-38.37205194497272
 30
0.0
 10
-3.444971038939299
 20
-38.52700803344811
 30
0.0
 10
-1.09322242567058
 20
-38.7300762880811
 30
0.0
 10
0.0822659521968207
 20
-38.77807945352153
 30
0.0
 10
1.844919625847485
 20
-38.76978775886804
 30
0.0
 10
2.432374368205968
 20
-38.75364112018119
 30
0.0
 10
3.607090888539453
 20
-38.69458236186945
 30
0.0
 10
4.196319759598568
 20
-38.65148164589741
 30
0.0
 10
5.951914367696023
 20
-38.48316285465715
 30
0.0
 10
7.114458472940745
 20
-38.31815526315646
 30
0.0
 10
9.423842083123025
 20
-37.88254995214067
 30
0.0
 10
10.57332566782589
 20
-37.61120149871778
 30
0.0
 10
13.98235504288189
 20
-36.64327534987434
 30
0.0
 10
16.17925449409235
 20
-35.79959524574694
 30
0.0
 10
19.3480747871519
 20
-34.24279348065318
 30
0.0
 10
20.37829668483224
 20
-33.67817813787976
 30
0.0
 10
22.38663741351392
 20
-32.45758461018187
 30
0.0
 10
23.36713925836071
 20
-31.79985017907606
 30
0.0
 10
26.21619210980986
 20
-29.70014009962021
 30
0.0
 10
27.97843930337562
 20
-28.14100512135228
 30
0.0
 10
30.40723124514617
 20
-25.57271803125133
 30
0.0
 10
31.17654928493131
 20
-24.68386177485756
 30
0.0
 10
32.27010743340146
 20
-23.30143655072673
 30
0.0
 10
32.62455699769026
 20
-22.83243800275975
 30
0.0
 10
33.31331648919864
 20
-21.87806062697907
 30
0.0
 10
33.64864843508492
 20
-21.39112604870511
 30
0.0
 10
34.61830270513993
 20
-19.91508639687468
 30
0.0
 10
35.21955542276353
 20
-18.90550795921764
 30
0.0
 10
36.33169393318462
 20
-16.83524707769669
 30
0.0
 10
36.84347582425965
 20
-15.77247451584662
 30
0.0
 10
37.77308828847345
 20
-13.6041858578843
 30
0.0
 10
38.18910189086596
 20
-12.50398298811303
 30
0.0
 10
38.73993334988315
 20
-10.82959087227098
 30
0.0
 10
38.91134567879362
 20
-10.26744553179277
 30
0.0
 10
39.22977402175736
 20
-9.1351255804413
 30
0.0
 10
39.37723258316522
 20
-8.5630661604022
 30
0.0
 10
39.78035851097549
 20
-6.846152849687352
 30
0.0
 10
39.99863944559416
 20
-5.692345634941755
 30
0.0
 10
40.33426194698849
 20
-3.36633452357917
 30
0.0
 10
40.45174819176929
 20
-2.191574651091297
 30
0.0
 10
40.58520260146732
 20
0.1661178722723168
 30
0.0
 10
40.60107220585582
 20
1.342833063835429
 30
0.0
 10
40.53109621371178
 20
3.692001306724263
 30
0.0
 10
40.44497136142679
 20
4.866845078623227
 30
0.0
 10
40.17212347894562
 20
7.202707599890793
 30
0.0
 10
39.98576926030088
 20
8.36221389234903
 30
0.0
 10
39.51320026820304
 20
10.66437654091441
 30
0.0
 10
39.22631712943019
 20
11.80928811667257
 30
0.0
 10
38.21988707281773
 20
15.20521662151432
 30
0.0
 10
37.36085043001955
 20
17.39558062402201
 30
0.0
 10
35.795394344573
 20
20.56018412907651
 30
0.0
 10
35.23017558103302
 20
21.59023391224533
 30
0.0
 10
34.0129379171708
 20
23.60069737488425
 30
0.0
 10
33.35947358392754
 20
24.5830972661799
 30
0.0
 10
31.27755297655053
 20
27.4439255135655
 30
0.0
 10
29.73660513224905
 20
29.22225811081189
 30
0.0
 10
27.20507105105575
 20
31.68728546809828
 30
0.0
 10
26.32925670219143
 20
32.47125831460053
 30
0.0
 10
24.51368869419639
 20
33.96379812908527
 30
0.0
 10
23.57152003526257
 20
34.6740323787656
 30
0.0
 10
21.63290340634083
 20
36.0124258728151
 30
0.0
 10
20.6384149870612
 20
36.63905939886959
 30
0.0
 10
18.59907793886442
 20
37.80720000903803
 30
0.0
 10
17.55242004221451
 20
38.3495507368819
 30
0.0
 10
15.41598111020818
 20
39.3457511757095
 30
0.0
 10
14.33054558225986
 20
39.79803851186046
 30
0.0
 10
12.12524240247289
 20
40.61098741763673
 30
0.0
 10
11.00222480178863
 20
40.9725211809661
 30
0.0
 10
8.73435727191223
 20
41.60047416628289
 30
0.0
 10
7.590049055083179
 20
41.86658458592902
 30
0.0
 10
5.280683717643369
 20
42.30307327919672
 30
0.0
 10
4.113218523444045
 20
42.47370254011651
 30
0.0
 10
1.767171525617965
 20
42.7182249667387
 30
0.0
 10
0.5931893155416226
 20
42.79198234471149
 30
0.0
 10
-1.756692526937664
 20
42.84248942998045
 30
0.0
 10
-2.935828837685359
 20
42.81904179404183
 30
0.0
 10
-5.28307216812835
 20
42.67592822442717
 30
0.0
 10
-6.451426918689175
 20
42.55613609313429
 30
0.0
 10
-8.777602590489485
 20
42.2200811375775
 30
0.0
 10
-9.937881303048709
 20
42.00325427787187
 30
0.0
 10
-12.23807373356685
 20
41.47538600725632
 30
0.0
 10
-13.37321931580748
 20
41.1656961849699
 30
0.0
 10
-15.61360921425182
 20
40.45480516643982
 30
0.0
 10
-16.72151061388091
 20
40.05251472080896
 30
0.0
 10
-18.8967838134007
 20
39.16077945313873
 30
0.0
 10
-19.96425239629126
 20
38.67126652118599
 30
0.0
 10
-22.05885352833367
 20
37.60495006104528
 30
0.0
 10
-23.08795563965077
 20
37.02693297220591
 30
0.0
 10
-25.09794557988533
 20
35.7884624408975
 30
0.0
 10
-26.0741333214709
 20
35.13110498894939
 30
0.0
 10
-27.9688943475786
 20
33.74014571246538
 30
0.0
 10
-28.88919275354151
 20
33.005047632112
 30
0.0
 10
-30.66527462264079
 20
31.4645921220873
 30
0.0
 10
-31.52056729367803
 20
30.65977869707871
 30
0.0
 10
-33.16565610872772
 20
28.98098050706903
 30
0.0
 10
-33.95672245042571
 20
28.1054713152868
 30
0.0
 10
-36.22405549886935
 20
25.38433329063835
 30
0.0
 10
-37.58064492503174
 20
23.46048175707388
 30
0.0
 10
-39.97311591800936
 20
19.41149677662082
 30
0.0
 10
-41.00405341243608
 20
17.29522853970163
 30
0.0
 10
-42.72759350892701
 20
12.89888066724637
 30
0.0
 10
-43.40926753917419
 20
10.64609960911134
 30
0.0
 10
-44.40842093679881
 20
6.049736364654254
 30
0.0
 10
-44.724105362141
 20
3.717169056697015
 30
0.0
 10
-44.98657749072819
 20
-0.9967625522284345
 30
0.0
 10
-44.93147638038096
 20
-3.349550393900772
 30
0.0
 10
-44.45040291803704
 20
-8.029230280566138
 30
0.0
 10
-44.02642905157902
 20
-10.3443229660617
 30
0.0
 10
-42.81638615085868
 20
-14.90699340992698
 30
0.0
 10
-42.03712880966074
 20
-17.12742598915514
 30
0.0
 10
-40.13678988651846
 20
-21.43143010390387
 30
0.0
 10
-39.02164590530109
 20
-23.50375114003325
 30
0.0
 10
-36.47062317200322
 20
-27.47468818517345
 30
0.0
 10
-35.04927930456594
 20
-29.34987029351353
 30
0.0
 10
-31.92512252205546
 20
-32.86817937790826
 30
0.0
 10
-30.23180685746183
 20
-34.50202543015742
 30
0.0
 10
-26.59468133285957
 20
-37.50919521876548
 30
0.0
 10
-24.67160658995728
 20
-38.86475243719288
 30
0.0
 10
-20.62893444708422
 20
-41.27236636895642
 30
0.0
 10
-18.52141115279812
 20
-42.3183485943993
 30
0.0
 10
-14.14728366469558
 20
-44.08928146752631
 30
0.0
 10
-11.90562830353644
 20
-44.80359423386096
 30
0.0
 10
-7.326853478929784
 20
-45.88666727371395
 30
0.0
 10
-5.00296106549007
 20
-46.25328142516898
 30
0.0
 10
-0.299541460534829
 20
-46.63557784587463
 30
0.0
 10
2.053043975523061
 20
-46.64859022696034
 30
0.0
 10
6.74646627315206
 20
-46.31929050598587
 30
0.0
 10
9.074152939032611
 20
-45.97883900596489
 30
0.0
 10
13.67951019219531
 20
-44.94900876129822
 30
0.0
 10
15.93076768790989
 20
-44.26501584171609
 30
0.0
 10
20.31607058894821
 20
-42.56444685890982
 30
0.0
 10
22.44021324817448
 20
-41.55263383737488
 30
0.0
 10
26.53839407888261
 20
-39.21342064872062
 30
0.0
 10
28.48872468558008
 20
-37.89938471446064
 30
0.0
 10
32.18604294234701
 20
-34.98704115685017
 30
0.0
 10
33.9198911017351
 20
-33.40021168019363
 30
0.0
 10
36.34899748086454
 20
-30.82339684454538
 30
0.0
 10
37.12420225118954
 20
-29.93781668890191
 30
0.0
 10
38.60561707973658
 20
-28.11337262342688
 30
0.0
 10
39.31379615061103
 20
-27.17167849599742
 30
0.0
 10
40.65328352964737
 20
-25.24632735734198
 30
0.0
 10
41.28741273557107
 20
-24.25940592319122
 30
0.0
 10
42.18518481906492
 20
-22.74265497473051
 30
0.0
 10
42.47553855933091
 20
-22.23100985903784
 30
0.0
 10
43.03843879806569
 20
-21.19559669524098
 30
0.0
 10
43.31241521152955
 20
-20.66895502060709
 30
0.0
 10
44.0990540992547
 20
-19.08808735726637
 30
0.0
 10
44.58454942349034
 20
-18.01756537436417
 30
0.0
 10
45.25439650847208
 20
-16.38686708899828
 30
0.0
 10
45.46794621990405
 20
-15.83914844204089
 30
0.0
 10
45.87558034231075
 20
-14.73540604445524
 30
0.0
 10
46.06886853007922
 20
-14.18180171943929
 30
0.0
 10
46.62431248193637
 20
-12.49401453521131
 30
0.0
 10
46.95213629019078
 20
-11.36148820441824
 30
0.0
 10
47.38016376309685
 20
-9.651696396267003
 30
0.0
 10
47.5122215474863
 20
-9.079932074889653
 30
0.0
 10
47.69438116420157
 20
-8.21953501483322
 30
0.0
 10
47.75244652646183
 20
-7.932277565149341
 30
0.0
 10
47.83556280488501
 20
-7.50070374612592
 30
0.0
 10
47.86260460353155
 20
-7.356731199035179
 30
0.0
 10
47.91536094583553
 20
-7.068556890021164
 30
0.0
 10
47.94072836971627
 20
-6.92635485799102
 30
0.0
 10
48.37249498069003
 20
-4.43898117103562
 30
0.0
 10
48.5987060840544
 20
-2.098442475425836
 30
0.0
 10
48.644759715749
 20
0.2415773280710002
 30
0.0
  0
ARC
  5
6D
330
1F
100
AcDbEntity
  8
0
  6
Continuous
 62
     7
370
    25
100
AcDbCircle
 10
5.4978567496
 20
7.9914686486
 30
0.0
 40
0.1999999999999995
100
AcDbArc
 50
235.4733601559
 51
48.2116385394
  0
ARC
  5
6E
330
1F
100
AcDbEntity
  8
0
  6
Continuous
 62
     7
370
    25
100
AcDbCircle
 10
0.0
 20
0.0
 30
0.0
 40
9.500000000000002
100
AcDbArc
 50
55.4733601559
 51
216.7162708188
  0
ARC
  5
6F
330
1F
100
AcDbEntity
  8
0
  6
Continuous
 62
     7
370
    25
100
AcDbCircle
 10
0.8178325186
 20
0.60995493
 30
0.0
 40
10.52024264034921
100
AcDbArc
 50
216.7162708188
 51
355.9813587057
  0
SPLINE
  5
70
330
1F
100
AcDbEntity
  8
0
  6
Continuous
 62
     7
370
    25
100
AcDbSpline
210
0.0
220
0.0
230
1.0
 70
     8
 71
     3
 72
   574
 73
   570
 74
     0
 42
0.00000001
 43
0.00000001
 40
0.0165531580209727
 40
0.0165531580209727
 40
0.0165531580209727
 40
0.0165531580209727
 40
0.01953125
 40
0.01953125
 40
0.021484375
 40
0.021484375
 40
0.0234375
 40
0.0234375
 40
0.02734375
 40
0.02734375
 40
0.03125
 40
0.03125
 40
0.0390625
 40
0.0390625
 40
0.046875
 40
0.046875
 40
0.0546875
 40
0.0546875
 40
0.0625
 40
0.0625
 40
0.0703125
 40
0.0703125
 40
0.078125
 40
0.078125
 40
0.0859375
 40
0.0859375
 40
0.08984375
 40
0.08984375
 40
0.09375
 40
0.09375
 40
0.09765625
 40
0.09765625
 40
0.1015625
 40
0.1015625
 40
0.10546875
 40
0.10546875
 40
0.109375
 40
0.109375
 40
0.11328125
 40
0.11328125
 40
0.1171875
 40
0.1171875
 40
0.12109375
 40
0.12109375
 40
0.125
 40
0.125
 40
0.1328125
 40
0.1328125
 40
0.13671875
 40
0.13671875
 40
0.140625
 40
0.140625
 40
0.1484375
 40
0.1484375
 40
0.15234375
 40
0.15234375
 40
0.15625
 40
0.15625
 40
0.1640625
 40
0.1640625
 40
0.171875
 40
0.171875
 40
0.1796875
 40
0.1796875
 40
0.1875
 40
0.1875
 40
0.1953125
 40
0.1953125
 40
0.203125
 40
0.203125
 40
0.2109375
 40
0.2109375
 40
0.21484375
 40
0.21484375
 40
0.21875
 40
0.21875
 40
0.22265625
 40
0.22265625
 40
0.2265625
 40
0.2265625
 40
0.23046875
 40
0.23046875
 40
0.234375
 40
0.234375
 40
0.23828125
 40
0.23828125
 40
0.2421875
 40
0.2421875
 40
0.25
 40
0.25
 40
0.25390625
 40
0.25390625
 40
0.2578125
 40
0.2578125
 40
0.265625
 40
0.265625
 40
0.26953125
 40
0.26953125
 40
0.2734375
 40
0.2734375
 40
0.28125
 40
0.28125
 40
0.28515625
 40
0.28515625
 40
0.2890625
 40
0.2890625
 40
0.29296875
 40
0.29296875
 40
0.296875
 40
0.296875
 40
0.3046875
 40
0.3046875
 40
0.30859375
 40
0.30859375
 40
0.3125
 40
0.3125
 40
0.3203125
 40
0.3203125
 40
0.32421875
 40
0.32421875
 40
0.328125
 40
0.328125
 40
0.3359375
 40
0.3359375
 40
0.33984375
 40
0.33984375
 40
0.34375
 40
0.34375
 40
0.34765625
 40
0.34765625
 40
0.3515625
 40
0.3515625
 40
0.359375
 40
0.359375
 40
0.36328125
 40
0.36328125
 40
0.365234375
 40
0.365234375
 40
0.3671875
 40
0.3671875
 40
0.375
 40
0.375
 40
0.37890625
 40
0.37890625
 40
0.3828125
 40
0.3828125
 40
0.38671875
 40
0.38671875
 40
0.390625
 40
0.390625
 40
0.3984375
 40
0.3984375
 40
0.40234375
 40
0.40234375
 40
0.404296875
 40
0.404296875
 40
0.40625
 40
0.40625
 40
0.4140625
 40
0.4140625
 40
0.41796875
 40
0.41796875
 40
0.421875
 40
0.421875
 40
0.42578125
 40
0.42578125
 40
0.4296875
 40
0.4296875
 40
0.4375
 40
0.4375
 40
0.44140625
 40
0.44140625
 40
0.443359375
 40
0.443359375
 40
0.4453125
 40
0.4453125
 40
0.453125
 40
0.453125
 40
0.45703125
 40
0.45703125
 40
0.4609375
 40
0.4609375
 40
0.46484375
 40
0.46484375
 40
0.466796875
 40
0.466796875
 40
0.46875
 40
0.46875
 40
0.4765625
 40
0.4765625
 40
0.48046875
 40
0.48046875
 40
0.482421875
 40
0.482421875
 40
0.484375
 40
0.484375
 40
0.48828125
 40
0.48828125
 40
0.4921875
 40
0.4921875
 40
0.5
 40
0.5
 40
0.50390625
 40
0.50390625
 40
0.505859375
 40
0.505859375
 40
0.5078125
 40
0.5078125
 40
0.515625
 40
0.515625
 40
0.5234375
 40
0.5234375
 40
0.52734375
 40
0.52734375
 40
0.529296875
 40
0.529296875
 40
0.53125
 40
0.53125
 40
0.5390625
 40
0.5390625
 40
0.54296875
 40
0.54296875
 40
0.546875
 40
0.546875
 40
0.5546875
 40
0.5546875
 40
0.55859375
 40
0.55859375
 40
0.560546875
 40
0.560546875
 40
0.5625
 40
0.5625
 40
0.56640625
 40
0.56640625
 40
0.5703125
 40
0.5703125
 40
0.578125
 40
0.578125
 40
0.5859375
 40
0.5859375
 40
0.58984375
 40
0.58984375
 40
0.591796875
 40
0.591796875
 40
0.59375
 40
0.59375
 40
0.6015625
 40
0.6015625
 40
0.60546875
 40
0.60546875
 40
0.609375
 40
0.609375
 40
0.61328125
 40
0.61328125
 40
0.615234375
 40
0.615234375
 40
0.6171875
 40
0.6171875
 40
0.62109375
 40
0.62109375
 40
0.625
 40
0.625
 40
0.62890625
 40
0.62890625
 40
0.6328125
 40
0.6328125
 40
0.63671875
 40
0.63671875
 40
0.640625
 40
0.640625
 40
0.64453125
 40
0.64453125
 40
0.646484375
 40
0.646484375
 40
0.6474609375
 40
0.6474609375
 40
0.6484375
 40
0.6484375
 40
0.65625
 40
0.65625
 40
0.658203125
 40
0.658203125
 40
0.66015625
 40
0.66015625
 40
0.6640625
 40
0.6640625
 40
0.66796875
 40
0.66796875
 40
0.671875
 40
0.671875
 40
0.67578125
 40
0.67578125
 40
0.677734375
 40
0.677734375
 40
0.6787109375
 40
0.6787109375
 40
0.6796875
 40
0.6796875
 40
0.6875
 40
0.6875
 40
0.689453125
 40
0.689453125
 40
0.69140625
 40
0.69140625
 40
0.6953125
 40
0.6953125
 40
0.69921875
 40
0.69921875
 40
0.703125
 40
0.703125
 40
0.70703125
 40
0.70703125
 40
0.708984375
 40
0.708984375
 40
0.7099609375
 40
0.7099609375
 40
0.7109375
 40
0.7109375
 40
0.71875
 40
0.71875
 40
0.72265625
 40
0.72265625
 40
0.7265625
 40
0.7265625
 40
0.73046875
 40
0.73046875
 40
0.734375
 40
0.734375
 40
0.73828125
 40
0.73828125
 40
0.7421875
 40
0.7421875
 40
0.74609375
 40
0.74609375
 40
0.748046875
 40
0.748046875
 40
0.7490234375
 40
0.7490234375
 40
0.75
 40
0.75
 40
0.7578125
 40
0.7578125
 40
0.76171875
 40
0.76171875
 40
0.765625
 40
0.765625
 40
0.767578125
 40
0.767578125
 40
0.76953125
 40
0.76953125
 40
0.7734375
 40
0.7734375
 40
0.775390625
 40
0.775390625
 40
0.77734375
 40
0.77734375
 40
0.78125
 40
0.78125
 40
0.78515625
 40
0.78515625
 40
0.7890625
 40
0.7890625
 40
0.79296875
 40
0.79296875
 40
0.796875
 40
0.796875
 40
0.80078125
 40
0.80078125
 40
0.802734375
 40
0.802734375
 40
0.8046875
 40
0.8046875
 40
0.806640625
 40
0.806640625
 40
0.80859375
 40
0.80859375
 40
0.810546875
 40
0.810546875
 40
0.8125
 40
0.8125
 40
0.814453125
 40
0.814453125
 40
0.81640625
 40
0.81640625
 40
0.8203125
 40
0.8203125
 40
0.82421875
 40
0.82421875
 40
0.828125
 40
0.828125
 40
0.83203125
 40
0.83203125
 40
0.8359375
 40
0.8359375
 40
0.83984375
 40
0.83984375
 40
0.84375
 40
0.84375
 40
0.84765625
 40
0.84765625
 40
0.8515625
 40
0.8515625
 40
0.85546875
 40
0.85546875
 40
0.859375
 40
0.859375
 40
0.86328125
 40
0.86328125
 40
0.8671875
 40
0.8671875
 40
0.87109375
 40
0.87109375
 40
0.875
 40
0.875
 40
0.87890625
 40
0.87890625
 40
0.880859375
 40
0.880859375
 40
0.8828125
 40
0.8828125
 40
0.884765625
 40
0.884765625
 40
0.88671875
 40
0.88671875
 40
0.888671875
 40
0.888671875
 40
0.890625
 40
0.890625
 40
0.892578125
 40
0.892578125
 40
0.89453125
 40
0.89453125
 40
0.896484375
 40
0.896484375
 40
0.8984375
 40
0.8984375
 40
0.900390625
 40
0.900390625
 40
0.90234375
 40
0.90234375
 40
0.90625
 40
0.90625
 40
0.908203125
 40
0.908203125
 40
0.91015625
 40
0.91015625
 40
0.912109375
 40
0.912109375
 40
0.9140625
 40
0.9140625
 40
0.916015625
 40
0.916015625
 40
0.91796875
 40
0.91796875
 40
0.919921875
 40
0.919921875
 40
0.9208984375
 40
0.9208984375
 40
0.921875
 40
0.921875
 40
0.923828125
 40
0.923828125
 40
0.92578125
 40
0.92578125
 40
0.927734375
 40
0.927734375
 40
0.9296875
 40
0.9296875
 40
0.931640625
 40
0.931640625
 40
0.9326171875
 40
0.9326171875
 40
0.93359375
 40
0.93359375
 40
0.935546875
 40
0.935546875
 40
0.9375
 40
0.9375
 40
0.939453125
 40
0.939453125
 40
0.94140625
 40
0.94140625
 40
0.943359375
 40
0.943359375
 40
0.9443359375
 40
0.9443359375
 40
0.9453125
 40
0.9453125
 40
0.947265625
 40
0.947265625
 40
0.9482421875
 40
0.9482421875
 40
0.94921875
 40
0.94921875
 40
0.951171875
 40
0.951171875
 40
0.953125
 40
0.953125
 40
0.955078125
 40
0.955078125
 40
0.95703125
 40
0.95703125
 40
0.958984375
 40
0.958984375
 40
0.9599609375
 40
0.9599609375
 40
0.9609375
 40
0.9609375
 40
0.962890625
 40
0.962890625
 40
0.9638671875
 40
0.9638671875
 40
0.96484375
 40
0.96484375
 40
0.96875
 40
0.96875
 40
0.970703125
 40
0.970703125
 40
0.9716796875
 40
0.9716796875
 40
0.97265625
 40
0.97265625
 40
0.974609375
 40
0.974609375
 40
0.9765625
 40
0.9765625
 40
0.98046875
 40
0.98046875
 40
0.982421875
 40
0.982421875
 40
0.984375
 40
0.984375
 40
0.986328125
 40
0.986328125
 40
0.98828125
 40
0.98828125
 40
0.990234375
 40
0.990234375
 40
0.9921875
 40
0.9921875
 40
0.9931640625
 40
0.9931640625
 40
0.99365234375
 40
0.99365234375
 40
0.994140625
 40
0.994140625
 40
0.9951171875
 40
0.9951171875
 40
0.99560546875
 40
0.99560546875
 40
0.995849609375
 40
0.995849609375
 40
0.99609375
 40
0.99609375
 40
0.9970703125
 40
0.9970703125
 40
0.99755859375
 40
0.99755859375
 40
0.998046875
 40
0.998046875
 40
0.99853515625
 40
0.99853515625
 40
0.998779296875
 40
0.998779296875
 40
0.9989013671875
 40
0.9989013671875
 40
0.9990234375
 40
0.9990234375
 40
1.0
 40
1.0
 40
1.0
 40
1.0
 10
48.38241551354461
 20
-16.16646340585166
 30
0.0
 10
48.05108641830069
 20
-17.08525562115468
 30
0.0
 10
47.69427586033328
 20
-17.9929451958933
 30
0.0
 10
47.06126488664493
 20
-19.47754162344152
 30
0.0
 10
46.79958599258764
 20
-20.0607757125338
 30
0.0
 10
46.25430832235337
 20
-21.21769308215489
 30
0.0
 10
45.9721666896751
 20
-21.78856204973109
 30
0.0
 10
45.08411910746862
 20
-23.50372861733022
 30
0.0
 10
44.45224928992276
 20
-24.61920765581236
 30
0.0
 10
43.10883346268128
 20
-26.79423505294209
 30
0.0
 10
42.39911362850455
 20
-27.85127623631133
 30
0.0
 10
40.13948278463634
 20
-30.95354681833733
 30
0.0
 10
38.48001591653393
 20
-32.8989441064059
 30
0.0
 10
34.85651646747947
 20
-36.5426370751465
 30
0.0
 10
32.92144836321226
 20
-38.2119518692591
 30
0.0
 10
28.79812078142573
 20
-41.2503480384457
 30
0.0
 10
26.63196877858748
 20
-42.60309544895116
 30
0.0
 10
22.07451628367802
 20
-44.98413802271044
 30
0.0
 10
19.72702499701742
 20
-45.98935178538709
 30
0.0
 10
14.87730499040428
 20
-47.63500321967621
 30
0.0
 10
12.40256736410068
 20
-48.26597028540964
 30
0.0
 10
7.336295467569743
 20
-49.14715113846337
 30
0.0
 10
4.794391105185992
 20
-49.38863078952481
 30
0.0
 10
-0.3274230000317414
 20
-49.4737085410296
 30
0.0
 10
-2.875859935507348
 20
-49.31695473897113
 30
0.0
 10
-6.69563865270444
 20
-48.78066271957204
 30
0.0
 10
-7.956346352194598
 20
-48.55320239356993
 30
0.0
 10
-10.45265800535717
 20
-48.00088910249423
 30
0.0
 10
-11.68626650420781
 20
-47.67664559693009
 30
0.0
 10
-14.13636157537843
 20
-46.92832810869253
 30
0.0
 10
-15.34361934849288
 20
-46.50703286509775
 30
0.0
 10
-17.72255536978008
 20
-45.57016937895624
 30
0.0
 10
-18.89245470818798
 20
-45.05546863874851
 30
0.0
 10
-21.20378949912142
 20
-43.92832415002501
 30
0.0
 10
-22.33223140983067
 20
-43.32194999853142
 30
0.0
 10
-24.53466426173423
 20
-42.02359788128057
 30
0.0
 10
-25.60671506888789
 20
-41.33298179791539
 30
0.0
 10
-27.70412624984291
 20
-39.860698287353
 30
0.0
 10
-28.72089657736437
 20
-39.08509621657559
 30
0.0
 10
-30.69056670649513
 20
-37.4549714440283
 30
0.0
 10
-31.64202310657432
 20
-36.60184985641742
 30
0.0
 10
-33.48683898694108
 20
-34.81108159356729
 30
0.0
 10
-34.3697842908833
 20
-33.88313663855312
 30
0.0
 10
-36.05674962628539
 20
-31.9621250813466
 30
0.0
 10
-36.85928092702613
 20
-30.9710555601644
 30
0.0
 10
-39.15741930483973
 20
-27.8881820397896
 30
0.0
 10
-40.51535656156889
 20
-25.72615989544432
 30
0.0
 10
-42.29854119791888
 20
-22.30857119785196
 30
0.0
 10
-42.84495894437513
 20
-21.15043291373539
 30
0.0
 10
-43.84184017263346
 20
-18.79627224233064
 30
0.0
 10
-44.29155313929129
 20
-17.60251539575535
 30
0.0
 10
-45.50126373314905
 20
-13.95082545699485
 30
0.0
 10
-46.10721949739929
 20
-11.46984078824656
 30
0.0
 10
-46.71733678741249
 20
-7.666354346696139
 30
0.0
 10
-46.86882700212587
 20
-6.395263863028718
 30
0.0
 10
-47.06804300097058
 20
-3.846559556059318
 30
0.0
 10
-47.11577556847823
 20
-2.571036146420759
 30
0.0
 10
-47.10328592487014
 20
1.277861573927273
 30
0.0
 10
-46.88846924565441
 20
3.82366676378192
 30
0.0
 10
-46.0441190910372
 20
8.88543275723496
 30
0.0
 10
-45.4200724722867
 20
11.36096911890638
 30
0.0
 10
-43.7614962464623
 20
16.22109853126292
 30
0.0
 10
-42.74181162283138
 20
18.56432350829155
 30
0.0
 10
-40.31856326351692
 20
23.08284850194215
 30
0.0
 10
-38.93058139496188
 20
25.22613753751703
 30
0.0
 10
-35.79090850627541
 20
29.29501613564117
 30
0.0
 10
-34.06880094402292
 20
31.1828670060099
 30
0.0
 10
-30.31469128793258
 20
34.6703640711799
 30
0.0
 10
-28.30599506693083
 20
36.24670391405204
 30
0.0
 10
-24.00959098480497
 20
39.07492013489065
 30
0.0
 10
-21.76739344814371
 20
40.29700650952147
 30
0.0
 10
-18.25114166592232
 20
41.84737780680663
 30
0.0
 10
-17.06068766848587
 20
42.31359389012354
 30
0.0
 10
-14.64303953355435
 20
43.14487735853442
 30
0.0
 10
-13.41777928262725
 20
43.50945645578717
 30
0.0
 10
-10.92278309444255
 20
44.13941910343463
 30
0.0
 10
-9.668389589944132
 20
44.40068171647988
 30
0.0
 10
-7.145811760135187
 20
44.81576952101342
 30
0.0
 10
-5.88058394861181
 20
44.9693625966723
 30
0.0
 10
-3.32451144960431
 20
45.1700397897507
 30
0.0
 10
-2.04634684334205
 20
45.21609675484362
 30
0.0
 10
0.5102390826994923
 20
45.19964742213693
 30
0.0
 10
1.786600241157347
 20
45.13732930785419
 30
0.0
 10
4.347819916875783
 20
44.9033770823286
 30
0.0
 10
5.617336156210404
 20
44.73274987697602
 30
0.0
 10
8.134181437830447
 20
44.28419328109133
 30
0.0
 10
9.378390274552874
 20
44.0071007855643
 30
0.0
 10
13.09645722252435
 20
43.0098486511833
 30
0.0
 10
15.49784769931005
 20
42.14019315586718
 30
0.0
 10
18.99488347168605
 20
40.52342499221613
 30
0.0
 10
20.13257249749036
 20
39.9367414735038
 30
0.0
 10
22.35197141912361
 20
38.66785284108853
 30
0.0
 10
23.43154572227145
 20
37.98712716155021
 30
0.0
 10
26.5991134928385
 20
35.79279112546162
 30
0.0
 10
28.5667836739133
 20
34.16194122489783
 30
0.0
 10
31.3054980316181
 20
31.46050050019844
 30
0.0
 10
32.1761174590505
 20
30.52346858682732
 30
0.0
 10
33.83278559697691
 20
28.5763014164758
 30
0.0
 10
34.61776949004264
 20
27.56766466097535
 30
0.0
 10
36.85225399840198
 20
24.42310837018035
 30
0.0
 10
38.14564348064549
 20
22.21929003345863
 30
0.0
 10
39.79386756083274
 20
18.74704009554438
 30
0.0
 10
40.29077627639873
 20
17.56904660692278
 30
0.0
 10
41.17959508520453
 20
15.17190594437918
 30
0.0
 10
41.57102595289066
 20
13.95450917869283
 30
0.0
 10
42.25080596815144
 20
11.47156032907717
 30
0.0
 10
42.53461794403331
 20
10.2219077760641
 30
0.0
 10
42.99008583230005
 20
7.706246413627474
 30
0.0
 10
43.16149041650635
 20
6.443008368647956
 30
0.0
 10
43.50897804295106
 20
2.612135262429421
 30
0.0
 10
43.51364614957671
 20
0.0589421891781022
 30
0.0
 10
43.17880753446335
 20
-3.785324157845015
 30
0.0
 10
43.0110127205149
 20
-5.055270532194515
 30
0.0
 10
42.56305920812999
 20
-7.572211798243774
 30
0.0
 10
42.28381268689742
 20
-8.815855883446705
 30
0.0
 10
41.27205423324432
 20
-12.53246575406185
 30
0.0
 10
40.38356868408572
 20
-14.92794766385763
 30
0.0
 10
38.72657669571652
 20
-18.4046946545837
 30
0.0
 10
38.12447379087554
 20
-19.53391017417285
 30
0.0
 10
36.82072349709109
 20
-21.73294092537873
 30
0.0
 10
36.12065295664591
 20
-22.80057348323191
 30
0.0
 10
33.8616635181669
 20
-25.92746676741417
 30
0.0
 10
32.18443545897901
 20
-27.85557582800554
 30
0.0
 10
29.40838249289361
 20
-30.51622835119715
 30
0.0
 10
28.4458326989706
 20
-31.35791513587805
 30
0.0
 10
26.44633550066879
 20
-32.95089392580725
 30
0.0
 10
25.41120675487353
 20
-33.70099042803947
 30
0.0
 10
23.25927701849317
 20
-35.11557066513564
 30
0.0
 10
22.15741394444165
 20
-35.77003542601962
 30
0.0
 10
19.90189138461595
 20
-36.97331423245944
 30
0.0
 10
18.75103461252237
 20
-37.52094977331737
 30
0.0
 10
15.20395339657402
 20
-39.01245135108611
 30
0.0
 10
12.76889788929934
 20
-39.78170084277477
 30
0.0
 10
8.998379542866674
 20
-40.60064816594132
 30
0.0
 10
7.735566938286848
 20
-40.81434771782604
 30
0.0
 10
5.832388297763698
 20
-41.04597271189691
 30
0.0
 10
5.19650212864708
 20
-41.10836032096117
 30
0.0
 10
3.921743212529375
 20
-41.20349409450429
 30
0.0
 10
3.284714429195735
 20
-41.23618864184192
 30
0.0
 10
0.0736644311418828
 20
-41.32607393847884
 30
0.0
 10
-2.476792781773336
 20
-41.16031827527053
 30
0.0
 10
-6.277484848457917
 20
-40.55477780662748
 30
0.0
 10
-7.529809225043636
 20
-40.29449888947743
 30
0.0
 10
-10.00531202026346
 20
-39.65707686663927
 30
0.0
 10
-11.22599372880214
 20
-39.28083356246069
 30
0.0
 10
-13.64819802830957
 20
-38.40788355952733
 30
0.0
 10
-14.83198531545528
 20
-37.91753277155888
 30
0.0
 10
-17.14493016453066
 20
-36.82907962261849
 30
0.0
 10
-18.2724653119155
 20
-36.23193727057522
 30
0.0
 10
-21.582860653515
 20
-34.27312280136797
 30
0.0
 10
-23.64782562200807
 20
-32.77042720757914
 30
0.0
 10
-26.54048880724117
 20
-30.21394002385468
 30
0.0
 10
-27.45899119817248
 20
-29.3210447910098
 30
0.0
 10
-28.76816677834987
 20
-27.92060268433736
 30
0.0
 10
-29.19312897070573
 20
-27.44360543921236
 30
0.0
 10
-30.02019402001094
 20
-26.46924452982733
 30
0.0
 10
-30.42106410587344
 20
-25.97348243211575
 30
0.0
 10
-32.38059390753801
 20
-23.42774023023575
 30
0.0
 10
-33.73919172466214
 20
-21.26319126939827
 30
0.0
 10
-35.464814874618
 20
-17.82191141672827
 30
0.0
 10
-35.98238612884426
 20
-16.6521602244258
 30
0.0
 10
-36.90225571244539
 20
-14.26734202366261
 30
0.0
 10
-37.30367973730947
 20
-13.05541475470143
 30
0.0
 10
-37.99475208022943
 20
-10.57368544262261
 30
0.0
 10
-38.27870826310976
 20
-9.323980606338793
 30
0.0
 10
-38.72346065171111
 20
-6.806890573282343
 30
0.0
 10
-38.88402017383843
 20
-5.542549854693669
 30
0.0
 10
-39.18237887604363
 20
-1.704740289090673
 30
0.0
 10
-39.13143570535513
 20
0.8482393694541246
 30
0.0
 10
-38.67883479747968
 20
4.681332933048334
 30
0.0
 10
-38.46650282379984
 20
5.944343753873127
 30
0.0
 10
-38.05580735669804
 20
7.816829434550405
 30
0.0
 10
-37.9035426165671
 20
8.437319569682847
 30
0.0
 10
-37.5682806341112
 20
9.670956323094423
 30
0.0
 10
-37.38600908721151
 20
10.2818732311079
 30
0.0
 10
-36.39056314297543
 20
13.34039608169861
 30
0.0
 10
-35.36475464545283
 20
15.67993092280538
 30
0.0
 10
-33.47834425346703
 20
19.03456776123648
 30
0.0
 10
-32.79668986450391
 20
20.11661810406429
 30
0.0
 10
-31.32767923664196
 20
22.20839491642145
 30
0.0
 10
-30.54216324720954
 20
23.21598905277255
 30
0.0
 10
-28.85806842054337
 20
25.16738278488935
 30
0.0
 10
-27.97323065320064
 20
26.09477939275999
 30
0.0
 10
-26.5817884711721
 20
27.4134239172843
 30
0.0
 10
-26.1072768219935
 20
27.8408970275788
 30
0.0
 10
-25.13685834663149
 20
28.67169311907391
 30
0.0
 10
-24.6428671045739
 20
29.07353670476064
 30
0.0
 10
-22.10026711051565
 20
31.03717326559847
 30
0.0
 10
-19.93107709314432
 20
32.38733867451074
 30
0.0
 10
-16.47013942493094
 20
34.08367056922089
 30
0.0
 10
-15.29385007730921
 20
34.58766817738949
 30
0.0
 10
-13.49545086855072
 20
35.25149505454024
 30
0.0
 10
-12.89032360107691
 20
35.45740909107347
 30
0.0
 10
-11.66874733702065
 20
35.83851398577252
 30
0.0
 10
-11.05437477435531
 20
36.01317137720555
 30
0.0
 10
-9.1818158891937
 20
36.49425958435036
 30
0.0
 10
-7.925719214682267
 20
36.74963721553686
 30
0.0
 10
-5.398077696852016
 20
37.12969679742315
 30
0.0
 10
-4.129612903791375
 20
37.25423589149733
 30
0.0
 10
-0.2825659698493057
 20
37.43266679274338
 30
0.0
 10
2.26783463072918
 20
37.28734470365016
 30
0.0
 10
6.07903697905622
 20
36.67180931855981
 30
0.0
 10
7.33103725244307
 20
36.40231031564628
 30
0.0
 10
9.181436898440099
 20
35.90158099945086
 30
0.0
 10
9.793636653091903
 20
35.71859109208155
 30
0.0
 10
11.00883590770109
 20
35.32045100673452
 30
0.0
 10
11.60948979865324
 20
35.1062072065539
 30
0.0
 10
14.61321470673032
 20
33.94552375115912
 30
0.0
 10
16.8862906195281
 20
32.78226766029059
 30
0.0
 10
21.1857804195487
 20
29.97776184560879
 30
0.0
 10
23.16530065601331
 20
28.36509262320612
 30
0.0
 10
25.88793736986656
 20
25.62170470412326
 30
0.0
 10
26.74114484173192
 20
24.66575308927922
 30
0.0
 10
27.93944890040134
 20
23.16959220428851
 30
0.0
 10
28.32529906176971
 20
22.66049966550416
 30
0.0
 10
29.06983033479693
 20
21.62157010036059
 30
0.0
 10
29.42700037776554
 20
21.094098479356
 30
0.0
 10
31.16003865523708
 20
18.3812251018495
 30
0.0
 10
32.29825038701027
 20
16.0944237443057
 30
0.0
 10
33.63565976829952
 20
12.48293252430973
 30
0.0
 10
34.01444710414501
 20
11.2613641678315
 30
0.0
 10
34.63799019333419
 20
8.782751555249236
 30
0.0
 10
34.88246445786685
 20
7.527726186305832
 30
0.0
 10
35.4165288105781
 20
3.697322907073114
 30
0.0
 10
35.49270369396275
 20
1.141713460812569
 30
0.0
 10
35.18754284082966
 20
-2.689954680362765
 30
0.0
 10
35.01679426170064
 20
-3.956714100802071
 30
0.0
 10
34.65575822156489
 20
-5.848340143153251
 30
0.0
 10
34.51848912603959
 20
-6.474123551919592
 30
0.0
 10
34.21010343736224
 20
-7.716173158750841
 30
0.0
 10
34.03965476929022
 20
-8.330267263032386
 30
0.0
 10
33.47352996815382
 20
-10.17130632252505
 30
0.0
 10
33.03066331386405
 20
-11.37117014751774
 30
0.0
 10
32.01402976488679
 20
-13.71590670149829
 30
0.0
 10
31.44123025410873
 20
-14.8590884043081
 30
0.0
 10
29.52067705772153
 20
-18.2162930257986
 30
0.0
 10
28.01217712851015
 20
-20.28074533104459
 30
0.0
 10
24.54456235058334
 20
-24.05613314169312
 30
0.0
 10
22.60223926752789
 20
-25.74711852333375
 30
0.0
 10
19.4402356447087
 20
-27.92705788006125
 30
0.0
 10
18.34572031233463
 20
-28.59312385614816
 30
0.0
 10
16.64926051062173
 20
-29.49810636976512
 30
0.0
 10
16.0761605922255
 20
-29.78333225206794
 30
0.0
 10
14.91473411978246
 20
-30.32091410553461
 30
0.0
 10
14.32946832651456
 20
-30.57205838097957
 30
0.0
 10
11.33446516325975
 20
-31.7577219375457
 30
0.0
 10
8.864267279620549
 20
-32.42176826826061
 30
0.0
 10
5.05965802509932
 20
-32.98932377724201
 30
0.0
 10
3.788587602924254
 20
-33.1053260473546
 30
0.0
 10
1.220076661982806
 20
-33.1916583826344
 30
0.0
 10
-0.0581422476844469
 20
-33.16094538355074
 30
0.0
 10
-2.609025401296773
 20
-32.95122513865367
 30
0.0
 10
-3.87744749049113
 20
-32.77216729461303
 30
0.0
 10
-5.763969145973269
 20
-32.39340471053534
 30
0.0
 10
-6.387898515101682
 20
-32.24924029779726
 30
0.0
 10
-7.625934887960572
 20
-31.92509103623011
 30
0.0
 10
-8.237274360432025
 20
-31.74600520995613
 30
0.0
 10
-10.07316441730363
 20
-31.1496229416671
 30
0.0
 10
-11.26535202700273
 20
-30.6837331332381
 30
0.0
 10
-13.58624905663699
 20
-29.6153502572408
 30
0.0
 10
-14.71695538925185
 20
-29.01163608240495
 30
0.0
 10
-16.90690221399885
 20
-27.67248890266415
 30
0.0
 10
-17.95511801307418
 20
-26.94391069413419
 30
0.0
 10
-19.97314500917812
 20
-25.35686149976092
 30
0.0
 10
-20.92954293401908
 20
-24.50811197005808
 30
0.0
 10
-22.74121791318642
 20
-22.69605189602061
 30
0.0
 10
-23.58983987161627
 20
-21.73990375496962
 30
0.0
 10
-25.17771894961774
 20
-19.72092960667228
 30
0.0
 10
-25.9065203144886
 20
-18.67128833741783
 30
0.0
 10
-27.23974043739
 20
-16.48201934796347
 30
0.0
 10
-27.83824930764007
 20
-15.35049345695264
 30
0.0
 10
-28.63319684712027
 20
-13.59933018328859
 30
0.0
 10
-28.8801620929029
 20
-13.00869253074759
 30
0.0
 10
-29.2235840605107
 20
-12.11236120995662
 30
0.0
 10
-29.33355373286894
 20
-11.81185496269639
 30
0.0
 10
-29.54448444389671
 20
-11.20738418751609
 30
0.0
 10
-29.64487912519114
 20
-10.90521457715346
 30
0.0
 10
-30.51808683799357
 20
-8.137817304886823
 30
0.0
 10
-30.98527037017139
 20
-5.624117166989756
 30
0.0
 10
-31.18252787648515
 20
-2.422389984135904
 30
0.0
 10
-31.20238359024019
 20
-1.782255769736635
 30
0.0
 10
-31.20290344273486
 20
-0.5024097852810946
 30
0.0
 10
-31.18369707981384
 20
0.1351748141673697
 30
0.0
 10
-31.06651363849154
 20
2.060057969645095
 30
0.0
 10
-30.91039689065342
 20
3.328200401661066
 30
0.0
 10
-30.43994610954908
 20
5.846186166635572
 30
0.0
 10
-30.12735739439632
 20
7.0869121011526
 30
0.0
 10
-29.34679486981918
 20
9.53389423088916
 30
0.0
 10
-28.88411890527658
 20
10.72411770450137
 30
0.0
 10
-27.80677416255052
 20
13.05360503163287
 30
0.0
 10
-27.19785927276135
 20
14.17850597266055
 30
0.0
 10
-26.17758867744525
 20
15.808544872538
 30
0.0
 10
-25.8210650595322
 20
16.3402406932102
 30
0.0
 10
-25.26162950345109
 20
17.12030870528807
 30
0.0
 10
-25.07104262988879
 20
17.37741875615896
 30
0.0
 10
-24.68165217302703
 20
17.88581361825726
 30
0.0
 10
-24.48411987690255
 20
18.13554232399179
 30
0.0
 10
-22.64647084881517
 20
20.38489699607882
 30
0.0
 10
-20.79115024069927
 20
22.14366242287932
 30
0.0
 10
-18.20077029774544
 20
24.03684263609273
 30
0.0
 10
-17.67188246196483
 20
24.39811722207952
 30
0.0
 10
-16.59248309602395
 20
25.08594348074132
 30
0.0
 10
-16.0438390225836
 20
25.41146651400822
 30
0.0
 10
-14.35426652037345
 20
26.34212308028992
 30
0.0
 10
-13.19780020550563
 20
26.88528090762245
 30
0.0
 10
-10.81275442551929
 20
27.82172633629585
 30
0.0
 10
-9.594362151337066
 20
28.21116755389975
 30
0.0
 10
-7.101129964819333
 20
28.83366267775055
 30
0.0
 10
-5.84405537800407
 20
29.06231970172669
 30
0.0
 10
-3.29593013192213
 20
29.35595756129422
 30
0.0
 10
-2.017738268103267
 20
29.4185213957033
 30
0.0
 10
-0.0937588022945923
 20
29.38597608350675
 30
0.0
 10
0.5458034092095617
 20
29.35416837095319
 30
0.0
 10
1.502500310817687
 20
29.27501788939074
 30
0.0
 10
1.820958208745711
 20
29.24339457674792
 30
0.0
 10
2.456991866052389
 20
29.16966831388491
 30
0.0
 10
2.772610605160939
 20
29.12785751321973
 30
0.0
 10
5.644435998527626
 20
28.69914324614478
 30
0.0
 10
8.101267133807013
 20
27.98941207855458
 30
0.0
 10
11.62916188292737
 20
26.43777434349598
 30
0.0
 10
12.76123613904117
 20
25.84710573931325
 30
0.0
 10
14.95302803551731
 20
24.50944269434785
 30
0.0
 10
15.99702047891066
 20
23.77103320915115
 30
0.0
 10
17.98621519893093
 20
22.15097244365395
 30
0.0
 10
18.91930965270399
 20
21.28011707136504
 30
0.0
 10
20.6772816792942
 20
19.40094784531017
 30
0.0
 10
21.48495342918283
 20
18.41043714618402
 30
0.0
 10
22.96374291712976
 20
16.31897233646308
 30
0.0
 10
23.6290166571033
 20
15.22540028851948
 30
0.0
 10
24.8108954717113
 20
12.94340070655262
 30
0.0
 10
25.31905044386913
 20
11.77188904429596
 30
0.0
 10
26.17561885694147
 20
9.351374925417721
 30
0.0
 10
26.51711573436845
 20
8.119177742163902
 30
0.0
 10
26.90019957522304
 20
6.232951883244793
 30
0.0
 10
27.00572632669849
 20
5.601331573505073
 30
0.0
 10
27.1307646606975
 20
4.649583573745466
 30
0.0
 10
27.16690213982814
 20
4.331614651300591
 30
0.0
 10
27.22809316701806
 20
3.694237628027503
 30
0.0
 10
27.25301592499749
 20
3.376975407784945
 30
0.0
 10
27.42979727842816
 20
0.47651327233504
 30
0.0
 10
27.2239642005957
 20
-2.071635063947713
 30
0.0
 10
26.3740438410822
 20
-5.834244103322153
 30
0.0
 10
26.00482333701423
 20
-7.057647769354478
 30
0.0
 10
25.09050528871077
 20
-9.453467730733784
 30
0.0
 10
24.54929520348526
 20
-10.61280745461392
 30
0.0
 10
23.61074774971761
 20
-12.29513704730565
 30
0.0
 10
23.27874635647421
 20
-12.84300260091627
 30
0.0
 10
22.57643908601234
 20
-13.91291175356427
 30
0.0
 10
22.20736498516538
 20
-14.43334507025676
 30
0.0
 10
21.03529529843293
 20
-15.96557378254368
 30
0.0
 10
20.18766910574169
 20
-16.92075091320176
 30
0.0
 10
18.80834689937095
 20
-18.26233397815187
 30
0.0
 10
18.33341044153327
 20
-18.69164680323843
 30
0.0
 10
17.35321274776305
 20
-19.51450939361797
 30
0.0
 10
16.84944727209265
 20
-19.90697944309617
 30
0.0
 10
15.28368911636636
 20
-21.03722329672897
 30
0.0
 10
14.1959074028153
 20
-21.70669528957877
 30
0.0
 10
11.91975354231194
 20
-22.88416359610083
 30
0.0
 10
10.74343685196871
 20
-23.38554014434968
 30
0.0
 10
8.308475045526349
 20
-24.21557181028322
 30
0.0
 10
7.07171153579786
 20
-24.53673384961615
 30
0.0
 10
4.548333719532801
 20
-24.99339270731015
 30
0.0
 10
3.276223576419948
 20
-25.12521550968123
 30
0.0
 10
0.7067403547242014
 20
-25.19596958476057
 30
0.0
 10
-0.5681102614065467
 20
-25.13481147047836
 30
0.0
 10
-3.118314490168993
 20
-24.81689615740564
 30
0.0
 10
-4.369841212754006
 20
-24.56220189365152
 30
0.0
 10
-6.222267935807476
 20
-24.03355919121282
 30
0.0
 10
-6.830995400886683
 20
-23.83426587771557
 30
0.0
 10
-8.030954112501192
 20
-23.38952109201908
 30
0.0
 10
-8.620091693187936
 20
-23.14503482071425
 30
0.0
 10
-9.789245299411766
 20
-22.60604331582485
 30
0.0
 10
-10.36073300511623
 20
-22.31515513576759
 30
0.0
 10
-11.47753022171025
 20
-21.69059392042798
 30
0.0
 10
-12.0212720033324
 20
-21.35796677986128
 30
0.0
 10
-13.08884828883143
 20
-20.64574406464012
 30
0.0
 10
-13.6071614761127
 20
-20.26984016719044
 30
0.0
 10
-14.61283793973874
 20
-19.47844729261293
 30
0.0
 10
-15.09855214100672
 20
-19.06447946332721
 30
0.0
 10
-16.04562693291339
 20
-18.19087413370909
 30
0.0
 10
-16.49966436164217
 20
-17.73768120108053
 30
0.0
 10
-17.36873928465065
 20
-16.79851480018442
 30
0.0
 10
-17.78262052128234
 20
-16.3140098699751
 30
0.0
 10
-18.97270187539184
 20
-14.80251304753932
 30
0.0
 10
-19.68001969667037
 20
-13.73973125307687
 30
0.0
 10
-20.93147298095964
 20
-11.48781533354613
 30
0.0
 10
-21.46041503754059
 20
-10.32549345864627
 30
0.0
 10
-22.33000241116312
 20
-7.913497605604436
 30
0.0
 10
-22.6641194981453
 20
-6.680145005480349
 30
0.0
 10
-23.1330388485329
 20
-4.147722103887973
 30
0.0
 10
-23.26251579678599
 20
-2.876911039077965
 30
0.0
 10
-23.3117616853256
 20
-0.3126845086369973
 30
0.0
 10
-23.23021497643493
 20
0.9626533334216758
 30
0.0
 10
-22.85329619269887
 20
3.509820766239983
 30
0.0
 10
-22.56218737258305
 20
4.75350920630901
 30
0.0
 10
-21.77036424239285
 20
7.194371096318092
 30
0.0
 10
-21.27485008779363
 20
8.371956183607562
 30
0.0
 10
-20.07903474235517
 20
10.65207785257636
 30
0.0
 10
-19.39245975574012
 20
11.72894862731505
 30
0.0
 10
-17.83287258911599
 20
13.76821226542605
 30
0.0
 10
-16.97257346583359
 20
14.7121241568177
 30
0.0
 10
-15.08031870959442
 20
16.4583318839481
 30
0.0
 10
-14.07077897139236
 20
17.24034168998147
 30
0.0
 10
-11.91180299473783
 20
18.63059061655693
 30
0.0
 10
-10.78183929424902
 20
19.22494875338797
 30
0.0
 10
-8.405675404367779
 20
20.21852370825944
 30
0.0
 10
-7.188863665113661
 20
20.60574506398391
 30
0.0
 10
-4.682623004707519
 20
21.16443445193678
 30
0.0
 10
-3.416904447716094
 20
21.32948083162977
 30
0.0
 10
-0.8421645539733267
 20
21.43169576786324
 30
0.0
 10
0.433052871496118
 20
21.36769957487753
 30
0.0
 10
2.974752757978232
 20
21.00729206348307
 30
0.0
 10
4.21651506641189
 20
20.71336388799338
 30
0.0
 10
6.66074639328973
 20
19.89171133307372
 30
0.0
 10
7.828062026743281
 20
19.37586980518334
 30
0.0
 10
9.509096240303961
 20
18.43774230133074
 30
0.0
 10
10.05272508016872
 20
18.10005737247967
 30
0.0
 10
11.10655096392062
 20
17.37473599297715
 30
0.0
 10
11.61519155003938
 20
16.98840093648703
 30
0.0
 10
12.60526675737286
 20
16.16057372506107
 30
0.0
 10
13.0777215103788
 20
15.72630141250577
 30
0.0
 10
13.97746531506908
 20
14.81703937371056
 30
0.0
 10
14.40315465868891
 20
14.34400764287853
 30
0.0
 10
15.21576647686501
 20
13.34939478589828
 30
0.0
 10
15.59665238166836
 20
12.83487104405176
 30
0.0
 10
16.30758418270569
 20
11.77138893364595
 30
0.0
 10
16.63655017166576
 20
11.22443767365279
 30
0.0
 10
17.24796177011213
 20
10.08807209268917
 30
0.0
 10
17.52439825584275
 20
9.509072414468948
 30
0.0
 10
18.01873260031885
 20
8.329439282551697
 30
0.0
 10
18.23565583064641
 20
7.731965143252711
 30
0.0
 10
18.61486217798808
 20
6.50274583158575
 30
0.0
 10
18.77363743446433
 20
5.882132197564664
 30
0.0
 10
19.02953211302768
 20
4.628896973147272
 30
0.0
 10
19.12645391117329
 20
3.998179211939806
 30
0.0
 10
19.2594321688413
 20
2.717120416394313
 30
0.0
 10
19.29391949359242
 20
2.077137685221303
 30
0.0
 10
19.29889053492893
 20
0.7982655560747589
 30
0.0
 10
19.26967728116305
 20
0.1625205467115899
 30
0.0
 10
19.0842139297243
 20
-1.761940813240904
 30
0.0
 10
18.8357546204697
 20
-3.013282161625525
 30
0.0
 10
18.27170809035795
 20
-4.856346314345095
 30
0.0
 10
18.05340190760275
 20
-5.458063179470263
 30
0.0
 10
17.55620819665647
 20
-6.636221204824551
 30
0.0
 10
17.27867843612543
 20
-7.210186401691197
 30
0.0
 10
16.65760649898727
 20
-8.342744943978344
 30
0.0
 10
16.32061413633568
 20
-8.888862925889613
 30
0.0
 10
15.59371662286749
 20
-9.940776311247555
 30
0.0
 10
15.20606879954977
 20
-10.4439388220704
 30
0.0
 10
14.36883105475379
 20
-11.42047283574678
 30
0.0
 10
13.92722109617212
 20
-11.884196043597
 30
0.0
 10
12.99801900664144
 20
-12.7625548613215
 30
0.0
 10
12.51196560657652
 20
-13.17601486201612
 30
0.0
 10
11.48772171054296
 20
-13.95854970214808
 30
0.0
 10
10.95849565617108
 20
-14.32009903803045
 30
0.0
 10
10.13900041508062
 20
-14.8178459155786
 30
0.0
 10
9.861559308128362
 20
-14.97633202038208
 30
0.0
 10
9.298125041046292
 20
-15.27844518789724
 30
0.0
 10
9.013968879388136
 20
-15.42121031042605
 30
0.0
 10
8.137650323817425
 20
-15.83238875597201
 30
0.0
 10
7.543312317014741
 20
-16.07335264804103
 30
0.0
 10
6.334385030564948
 20
-16.4889702889225
 30
0.0
 10
5.722054710849656
 20
-16.66311238060313
 30
0.0
 10
4.468106958847383
 20
-16.94713304923511
 30
0.0
 10
3.837076769032802
 20
-17.05408872751935
 30
0.0
 10
2.566903761776751
 20
-17.19789077202434
 30
0.0
 10
1.93012909309441
 20
-17.23473054147584
 30
0.0
 10
0.6389945330663179
 20
-17.23832715539237
 30
0.0
 10
-0.0014177492036274
 20
-17.20454316728049
 30
0.0
 10
-0.9543036759923945
 20
-17.10049374250747
 30
0.0
 10
-1.270643568819292
 20
-17.05691502714894
 30
0.0
 10
-1.900745855601036
 20
-16.95196644889678
 30
0.0
 10
-2.212113812009852
 20
-16.89113501925244
 30
0.0
 10
-3.15671805820441
 20
-16.67872340952119
 30
0.0
 10
-3.773411540126901
 20
-16.50311478088984
 30
0.0
 10
-4.980713139557452
 20
-16.08389574600611
 30
0.0
 10
-5.569073200033497
 20
-15.84136588575923
 30
0.0
 10
-6.728700184699223
 20
-15.28398220362245
 30
0.0
 10
-7.28863558364601
 20
-14.9739155672402
 30
0.0
 10
-8.368750194767431
 20
-14.291032703848
 30
0.0
 10
-8.887101013046335
 20
-13.91969362803793
 30
0.0
 10
-9.891360038414907
 20
-13.10835728099055
 30
0.0
 10
-10.36560688092927
 20
-12.67702458991949
 30
0.0
 10
-11.03515313944592
 20
-11.99152877699181
 30
0.0
 10
-11.25136455807566
 20
-11.75661404329574
 30
0.0
 10
-11.66984606025017
 20
-11.27395231712991
 30
0.0
 10
-11.87042071849724
 20
-11.02841175515216
 30
0.0
 10
-12.46140524239724
 20
-10.2593030981063
 30
0.0
 10
-12.82145218322869
 20
-9.72831786522156
 30
0.0
 10
-13.31060848182304
 20
-8.904470823613194
 30
0.0
 10
-13.46517489591235
 20
-8.625293611030196
 30
0.0
 10
-13.7573363532067
 20
-8.057816121770449
 30
0.0
 10
-13.89404396888379
 20
-7.771528817936641
 30
0.0
 10
-14.28403432475634
 20
-6.886904473236926
 30
0.0
 10
-14.50631841356254
 20
-6.28631809154189
 30
0.0
 10
-14.87546762762393
 20
-5.063471691028035
 30
0.0
 10
-15.02199764310083
 20
-4.443155290826043
 30
0.0
 10
-15.24097914961677
 20
-3.173074378830957
 30
0.0
 10
-15.31037129933257
 20
-2.536624052720923
 30
0.0
 10
-15.36895839167986
 20
-1.260903660275876
 30
0.0
 10
-15.35843761117682
 20
-0.6252115386478686
 30
0.0
 10
-15.25606173562448
 20
0.6633042236611482
 30
0.0
 10
-15.16505501272766
 20
1.297851351461504
 30
0.0
 10
-14.96881675070145
 20
2.23510591313081
 30
0.0
 10
-14.89344930041255
 20
2.545096412015373
 30
0.0
 10
-14.72280500727442
 20
3.160222033107424
 30
0.0
 10
-14.62856355992855
 20
3.462378752466713
 30
0.0
 10
-14.3097627560303
 20
4.379436262618157
 30
0.0
 10
-14.06064367020542
 20
4.970487188874787
 30
0.0
 10
-13.63208721662902
 20
5.826582457493234
 30
0.0
 10
-13.48008876129704
 20
6.1068673602383
 30
0.0
 10
-13.1577992423534
 20
6.6572767921396
 30
0.0
 10
-12.98930998351692
 20
6.924739901505253
 30
0.0
 10
-12.08311412088342
 20
8.263268712267244
 30
0.0
 10
-11.23350561680805
 20
9.216943913994795
 30
0.0
 10
-9.775737298109172
 20
10.46862485904971
 30
0.0
 10
-9.264380786351145
 20
10.85070074110729
 30
0.0
 10
-8.455052592913374
 20
11.37376539643697
 30
0.0
 10
-8.180321606461938
 20
11.53833830520561
 30
0.0
 10
-7.620949789614703
 20
11.84792017006039
 30
0.0
 10
-7.33913468228597
 20
11.99160965238757
 30
0.0
 10
-6.46187025598085
 20
12.40124901289911
 30
0.0
 10
-5.864618426400243
 20
12.63123270061637
 30
0.0
 10
-4.645297009817981
 20
13.00498163747001
 30
0.0
 10
-4.026555824495876
 20
13.14821885655194
 30
0.0
 10
-2.113135222320667
 20
13.45177103625318
 30
0.0
 10
-0.8366485298828101
 20
13.46977469661857
 30
0.0
 10
1.07106335882435
 20
13.22131806642997
 30
0.0
 10
1.694748838137335
 20
13.0932660692585
 30
0.0
 10
2.930191084578015
 20
12.7431510892575
 30
0.0
 10
3.528571237046914
 20
12.52485615807921
 30
0.0
 10
4.696431710253047
 20
11.99737316593947
 30
0.0
 10
5.255056578628747
 20
11.69272025220587
 30
0.0
 10
6.333272320476054
 20
10.99409044056405
 30
0.0
 10
6.83899711290516
 20
10.6091181070668
 30
0.0
 10
7.79655890929832
 20
9.756390139488559
 30
0.0
 10
8.238037433456794
 20
9.297494781565101
 30
0.0
 10
9.052247591151287
 20
8.307518908706381
 30
0.0
 10
9.416579745445684
 20
7.78597977428287
 30
0.0
 10
9.903041571098594
 20
6.956816749029612
 30
0.0
 10
10.05368832037475
 20
6.675113162423728
 30
0.0
 10
10.26239765537675
 20
6.24458391523271
 30
0.0
 10
10.32909063555871
 20
6.099745188288669
 30
0.0
 10
10.45672299961856
 20
5.807409778639858
 30
0.0
 10
10.51697056708572
 20
5.66168635547985
 30
0.0
 10
10.69323377349547
 20
5.209889595090154
 30
0.0
 10
10.79759967525198
 20
4.906555699078872
 30
0.0
 10
10.93443417411174
 20
4.448350771434718
 30
0.0
 10
10.9767599481025
 20
4.295081781615465
 30
0.0
 10
11.03532002064487
 20
4.064377275979773
 30
0.0
 10
11.05401861341837
 20
3.987342270616741
 30
0.0
 10
11.0897729361508
 20
3.833005252921742
 30
0.0
 10
11.10752914216132
 20
3.752362059928284
 30
0.0
 10
11.1851982546614
 20
3.381890384153563
 30
0.0
 10
11.23655986316484
 20
3.075676167066111
 30
0.0
 10
11.29744175367505
 20
2.60159952673342
 30
0.0
 10
11.3150422968043
 20
2.441114760838938
 30
0.0
 10
11.34485654231448
 20
2.115226790816135
 30
0.0
 10
11.35695013941684
 20
1.951941293189875
 30
0.0
 10
11.37623091398756
 20
1.611981033695275
 30
0.0
 10
11.38258756831914
 20
1.447288637014081
 30
0.0
 10
11.38719695038584
 20
1.208181641591445
 30
0.0
 10
11.3879124778363
 20
1.129801243050426
 30
0.0
 10
11.38775436915431
 20
1.014213545138687
 30
0.0
 10
11.3874964329507
 20
0.9760147958180725
 30
0.0
 10
11.38657009392427
 20
0.900278263810106
 30
0.0
 10
11.38598549912276
 20
0.8663097819140476
 30
0.0
 10
11.37736850173893
 20
0.4993203804559316
 30
0.0
 10
11.35309550342427
 20
0.1817044850562537
 30
0.0
 10
11.312209060025
 20
-0.1273145044470001
 30
0.0
  0
ARC
  5
71
330
1F
100
AcDbEntity
  8
0
  6
Continuous
 62
     7
370
    25
100
AcDbCircle
 10
53.3253067514
 20
-14.2287683648
 30
0.0
 40
5.309127602577135
100
AcDbArc
 50
201.4060000716
 51
344.9336319858
  0
ARC
  5
72
330
1F
100
AcDbEntity
  8
0
  6
Continuous
 62
     7
370
    25
100
AcDbCircle
 10
0.0
 20
0.0
 30
0.0
 40
6.807200000000002
100
AcDbArc
 50
315.1409234446
 51
344.8590765554
  0
LINE
  5
73
330
1F
100
AcDbEntity
  8
0
  6
Continuous
 62
     7
370
    25
100
AcDbLine
 10
5.43182124
 20
-6.5379903653
 30
0.0
 11
4.8252416853
 21
-4.8015637577
 31
0.0
  0
ARC
  5
74
330
1F
100
AcDbEntity
  8
0
  6
Continuous
 62
     7
370
    25
100
AcDbCircle
 10
0.0
 20
0.0
 30
0.0
 40
8.500000000000002
100
AcDbArc
 50
290.2798924936
 51
309.7201075064
  0
LINE
  5
75
330
1F
100
AcDbEntity
  8
0
  6
Continuous
 62
     7
370
    25
100
AcDbLine
 10
1.7456553494
 20
-6.5795637577
 30
0.0
 11
2.9461551261
 21
-7.9730903653
 31
0.0
  0
ARC
  5
76
330
1F
100
AcDbEntity
  8
0
  6
Continuous
 62
     7
370
    25
100
AcDbCircle
 10
0.0
 20
0.0
 30
0.0
 40
6.807200000000002
100
AcDbArc
 50
255.1409234446
 51
284.8590765554
  0
LINE
  5
77
330
1F
100
AcDbEntity
  8
0
  6
Continuous
 62
     7
370
    25
100
AcDbLine
 10
-2.9461551261
 20
-7.9730903653
 30
0.0
 11
-1.7456553494
 21
-6.5795637577
 31
0.0
  0
ARC
  5
78
330
1F
100
AcDbEntity
  8
0
  6
Continuous
 62
     7
370
    25
100
AcDbCircle
 10
0.0
 20
0.0
 30
0.0
 40
8.500000000000002
100
AcDbArc
 50
230.2798924936
 51
249.7201075064
  0
LINE
  5
79
330
1F
100
AcDbEntity
  8
0
  6
Continuous
 62
     7
370
    25
100
AcDbLine
 10
-4.8252416853
 20
-4.8015637577
 30
0.0
 11
-5.43182124
 21
-6.5379903653
 31
0.0
  0
ARC
  5
7A
330
1F
100
AcDbEntity
  8
0
  6
Continuous
 62
     7
370
    25
100
AcDbCircle
 10
0.0
 20
0.0
 30
0.0
 40
6.807200000000001
100
AcDbArc
 50
195.1409234446
 51
224.8590765554
  0
LINE
  5
7B
330
1F
100
AcDbEntity
  8
0
  6
Continuous
 62
     7
370
    25
100
AcDbLine
 10
-8.377976366
 20
-1.4351
 30
0.0
 11
-6.5708970347
 21
-1.778
 31
0.0
  0
ARC
  5
7C
330
1F
100
AcDbEntity
  8
0
  6
Continuous
 62
     7
370
    25
100
AcDbCircle
 10
0.0
 20
0.0
 30
0.0
 40
8.500000000000002
100
AcDbArc
 50
170.2798924936
 51
189.7201075064
  0
LINE
  5
7D
330
1F
100
AcDbEntity
  8
0
  6
Continuous
 62
     7
370
    25
100
AcDbLine
 10
-6.5708970347
 20
1.778
 30
0.0
 11
-8.377976366
 21
1.4351
 31
0.0
  0
ARC
  5
7E
330
1F
100
AcDbEntity
  8
0
  6
Continuous
 62
     7
370
    25
100
AcDbCircle
 10
0.0
 20
0.0
 30
0.0
 40
6.807200000000003
100
AcDbArc
 50
135.1409234446
 51
164.8590765554
  0
LINE
  5
7F
330
1F
100
AcDbEntity
  8
0
  6
Continuous
 62
     7
370
    25
100
AcDbLine
 10
-5.43182124
 20
6.5379903653
 30
0.0
 11
-4.8252416853
 21
4.8015637577
 31
0.0
  0
ARC
  5
80
330
1F
100
AcDbEntity
  8
0
  6
Continuous
 62
     7
370
    25
100
AcDbCircle
 10
0.0
 20
0.0
 30
0.0
 40
8.500000000000002
100
AcDbArc
 50
110.2798924936
 51
129.7201075064
  0
LINE
  5
81
330
1F
100
AcDbEntity
  8
0
  6
Continuous
 62
     7
370
    25
100
AcDbLine
 10
-1.7456553494
 20
6.5795637577
 30
0.0
 11
-2.9461551261
 21
7.9730903653
 31
0.0
  0
ARC
  5
82
330
1F
100
AcDbEntity
  8
0
  6
Continuous
 62
     7
370
    25
100
AcDbCircle
 10
0.0
 20
0.0
 30
0.0
 40
6.8072
100
AcDbArc
 50
75.1409234446
 51
104.8590765554
  0
LINE
  5
83
330
1F
100
AcDbEntity
  8
0
  6
Continuous
 62
     7
370
    25
100
AcDbLine
 10
2.9461551261
 20
7.9730903653
 30
0.0
 11
1.7456553494
 21
6.5795637577
 31
0.0
  0
ARC
  5
84
330
1F
100
AcDbEntity
  8
0
  6
Continuous
 62
     7
370
    25
100
AcDbCircle
 10
0.0
 20
0.0
 30
0.0
 40
8.5
100
AcDbArc
 50
50.2798924936
 51
69.7201075064
  0
LINE
  5
85
330
1F
100
AcDbEntity
  8
0
  6
Continuous
 62
     7
370
    25
100
AcDbLine
 10
4.8252416853
 20
4.8015637577
 30
0.0
 11
5.43182124
 21
6.5379903653
 31
0.0
  0
ARC
  5
86
330
1F
100
AcDbEntity
  8
0
  6
Continuous
 62
     7
370
    25
100
AcDbCircle
 10
0.0
 20
0.0
 30
0.0
 40
6.807200000000001
100
AcDbArc
 50
15.1409234446
 51
44.8590765554
  0
LINE
  5
87
330
1F
100
AcDbEntity
  8
0
  6
Continuous
 62
     7
370
    25
100
AcDbLine
 10
8.377976366
 20
1.4351
 30
0.0
 11
6.5708970347
 21
1.778
 31
0.0
  0
ARC
  5
88
330
1F
100
AcDbEntity
  8
0
  6
Continuous
 62
     7
370
    25
100
AcDbCircle
 10
0.0
 20
0.0
 30
0.0
 40
8.5
100
AcDbArc
 50
350.2798924936
 51
9.7201075064
  0
LINE
  5
89
330
1F
100
AcDbEntity
  8
0
  6
Continuous
 62
     7
370
    25
100
AcDbLine
 10
6.5708970347
 20
-1.778
 30
0.0
 11
8.377976366
 21
-1.4351
 31
0.0
  0
CIRCLE
  5
8A
330
1F
100
AcDbEntity
  8
0
  6
Continuous
 62
     7
370
    25
100
AcDbCircle
 10
51.5380079341
 20
-13.7478243789
 30
0.0
 40
1.999440798184892
  0
CIRCLE
  5
8B
330
1F
100
AcDbEntity
  8
0
  6
Continuous
 62
     7
370
    25
100
AcDbCircle
 10
46.1937950379
 20
26.67
 30
0.0
 40
1.999999999999986
  0
MTEXT
  5
8D
330
1F
100
AcDbEntity
  8
0
  6
Continuous
 62
     7
100
AcDbMText
 10
-47.096100842
 20
-50.4488870556
 30
0.0
 40
4.83362
 41
0.0
 71
     1
 72
     1
  1
SOLIDWORKS Educational Product.
  7
SLDTEXTSTYLE0
 73
     1
 44
1.0
  0
MTEXT
  5
8E
330
1F
100
AcDbEntity
  8
0
  6
Continuous
 62
     7
100
AcDbMText
 10
-47.096100842
 20
-57.6993170556
 30
0.0
 40
4.83362
 41
0.0
 71
     1
 72
     1
  1
For Instructional Use Only.
  7
SLDTEXTSTYLE0
 73
     1
 44
1.0
  0
ENDSEC
  0
SECTION
  2
OBJECTS
  0
DICTIONARY
  5
C
330
0
100
AcDbDictionary
281
     1
  3
ACAD_GROUP
350
D
  3
ACAD_LAYOUT
350
1A
  3
ACAD_MLINESTYLE
350
17
  3
ACAD_PLOTSETTINGS
350
19
  3
ACAD_PLOTSTYLENAME
350
E
  3
ACAD_SCALELIST
350
47
  3
DWGPROPS
350
8F
  0
DICTIONARY
  5
D
102
{ACAD_REACTORS
330
C
102
}
330
C
100
AcDbDictionary
281
     1
  0
DICTIONARY
  5
1A
102
{ACAD_REACTORS
330
C
102
}
330
C
100
AcDbDictionary
281
     1
  3
Layout1
350
1E
  3
Layout2
350
26
  3
Model
350
22
  0
DICTIONARY
  5
17
102
{ACAD_REACTORS
330
C
102
}
330
C
100
AcDbDictionary
281
     1
  3
Standard
350
18
  0
DICTIONARY
  5
19
102
{ACAD_REACTORS
330
C
102
}
330
C
100
AcDbDictionary
281
     1
  0
ACDBDICTIONARYWDFLT
  5
E
102
{ACAD_REACTORS
330
C
102
}
330
C
100
AcDbDictionary
281
     1
  3
Normal
350
F
100
AcDbDictionaryWithDefault
340
F
  0
DICTIONARY
  5
47
102
{ACAD_REACTORS
330
C
102
}
330
C
100
AcDbDictionary
281
     1
  3
A0
350
48
  3
A1
350
49
  3
A2
350
4A
  3
A3
350
4B
  3
A4
350
4C
  3
A5
350
4D
  3
A6
350
4E
  3
A7
350
4F
  3
A8
350
50
  3
A9
350
51
  3
B0
350
52
  3
B1
350
53
  3
B2
350
54
  3
B3
350
55
  3
B4
350
56
  3
B5
350
57
  3
B6
350
58
  0
XRECORD
  5
8F
102
{ACAD_REACTORS
330
C
102
}
330
C
100
AcDbXrecord
280
     1
  1
DWGPROPS COOKIE
  2

  3

  4

  6

  7

  8
lukej
  9

300
=
301
=
302
=
303
=
304
=
305
=
306
=
307
=
308
=
309
=
 40
0.0
 41
2461107.029207535
 42
2461107.029256898
  1

 90
        0
  0
LAYOUT
  5
1E
102
{ACAD_REACTORS
330
1A
102
}
330
1A
100
AcDbPlotSettings
  1

  2
none_device
  4

  6

 40
0.0
 41
0.0
 42
0.0
 43
0.0
 44
0.0
 45
0.0
 46
0.0
 47
0.0
 48
0.0
 49
0.0
140
0.0
141
0.0
142
1.0
143
1.0
 70
   688
 72
     1
 73
     0
 74
     5
  7

 75
    16
147
1.0
148
0.0
149
0.0
100
AcDbLayout
  1
Layout1
 70
     1
 71
     1
 10
0.0
 20
0.0
 11
420.0
 21
297.0
 12
0.0
 22
0.0
 32
0.0
 14
1.0000000000E+20
 24
1.0000000000E+20
 34
1.0000000000E+20
 15
-1.0000000000E+20
 25
-1.0000000000E+20
 35
-1.0000000000E+20
146
0.0
 13
0.0
 23
0.0
 33
0.0
 16
1.0
 26
0.0
 36
0.0
 17
0.0
 27
1.0
 37
0.0
 76
     0
330
1B
  0
LAYOUT
  5
26
102
{ACAD_REACTORS
330
1A
102
}
330
1A
100
AcDbPlotSettings
  1

  2
none_device
  4

  6

 40
0.0
 41
0.0
 42
0.0
 43
0.0
 44
0.0
 45
0.0
 46
0.0
 47
0.0
 48
0.0
 49
0.0
140
0.0
141
0.0
142
1.0
143
1.0
 70
   688
 72
     1
 73
     0
 74
     5
  7

 75
    16
147
1.0
148
0.0
149
0.0
100
AcDbLayout
  1
Layout2
 70
     1
 71
     2
 10
0.0
 20
0.0
 11
0.0
 21
0.0
 12
0.0
 22
0.0
 32
0.0
 14
0.0
 24
0.0
 34
0.0
 15
0.0
 25
0.0
 35
0.0
146
0.0
 13
0.0
 23
0.0
 33
0.0
 16
1.0
 26
0.0
 36
0.0
 17
0.0
 27
1.0
 37
0.0
 76
     0
330
23
  0
LAYOUT
  5
22
102
{ACAD_REACTORS
330
1A
102
}
330
1A
100
AcDbPlotSettings
  1

  2
none_device
  4
ANSI_A_(11.00_x_8.50_Inches)
  6

 40
6.35
 41
19.05
 42
6.35000508
 43
19.05000254
 44
279.4
 45
215.9
 46
119.633864539
 47
93.694673997
 48
0.0
 49
0.0
140
0.0
141
0.0
142
0.0889404646
143
1.0
 70
  1696
 72
     0
 73
     0
 74
     0
  7

 75
     0
147
0.0179189148
148
-1300.4909072572
149
0.0
100
AcDbLayout
  1
Model
 70
     1
 71
     0
 10
0.0
 20
0.0
 11
420.0
 21
297.0
 12
0.0
 22
0.0
 32
0.0
 14
-47.096100842
 24
-49.4293206639
 34
0.0
 15
59.2391728571
 25
45.1845318892
 35
0.0
146
0.0
 13
0.0
 23
0.0
 33
0.0
 16
1.0
 26
0.0
 36
0.0
 17
0.0
 27
1.0
 37
0.0
 76
     0
330
1F
331
29
  0
MLINESTYLE
  5
18
102
{ACAD_REACTORS
330
17
102
}
330
17
100
AcDbMlineStyle
  2
Standard
 70
     0
  3

 62
   256
 51
90.0
 52
90.0
 71
     2
 49
0.5
 62
   256
  6
BYLAYER
 49
-0.5
 62
   256
  6
BYLAYER
  0
ACDBPLACEHOLDER
  5
F
102
{ACAD_REACTORS
330
E
102
}
330
E
  0
SCALE
  5
48
102
{ACAD_REACTORS
330
47
102
}
330
47
100
AcDbScale
 70
     0
300
1:1
140
1.0
141
1.0
290
     1
  0
SCALE
  5
49
102
{ACAD_REACTORS
330
47
102
}
330
47
100
AcDbScale
 70
     0
300
1:2
140
1.0
141
2.0
290
     0
  0
SCALE
  5
4A
102
{ACAD_REACTORS
330
47
102
}
330
47
100
AcDbScale
 70
     0
300
1:4
140
1.0
141
4.0
290
     0
  0
SCALE
  5
4B
102
{ACAD_REACTORS
330
47
102
}
330
47
100
AcDbScale
 70
     0
300
1:5
140
1.0
141
5.0
290
     0
  0
SCALE
  5
4C
102
{ACAD_REACTORS
330
47
102
}
330
47
100
AcDbScale
 70
     0
300
1:8
140
1.0
141
8.0
290
     0
  0
SCALE
  5
4D
102
{ACAD_REACTORS
330
47
102
}
330
47
100
AcDbScale
 70
     0
300
1:10
140
1.0
141
10.0
290
     0
  0
SCALE
  5
4E
102
{ACAD_REACTORS
330
47
102
}
330
47
100
AcDbScale
 70
     0
300
1:16
140
1.0
141
16.0
290
     0
  0
SCALE
  5
4F
102
{ACAD_REACTORS
330
47
102
}
330
47
100
AcDbScale
 70
     0
300
1:20
140
1.0
141
20.0
290
     0
  0
SCALE
  5
50
102
{ACAD_REACTORS
330
47
102
}
330
47
100
AcDbScale
 70
     0
300
1:30
140
1.0
141
30.0
290
     0
  0
SCALE
  5
51
102
{ACAD_REACTORS
330
47
102
}
330
47
100
AcDbScale
 70
     0
300
1:40
140
1.0
141
40.0
290
     0
  0
SCALE
  5
52
102
{ACAD_REACTORS
330
47
102
}
330
47
100
AcDbScale
 70
     0
300
1:50
140
1.0
141
50.0
290
     0
  0
SCALE
  5
53
102
{ACAD_REACTORS
330
47
102
}
330
47
100
AcDbScale
 70
     0
300
1:100
140
1.0
141
100.0
290
     0
  0
SCALE
  5
54
102
{ACAD_REACTORS
330
47
102
}
330
47
100
AcDbScale
 70
     0
300
2:1
140
2.0
141
1.0
290
     0
  0
SCALE
  5
55
102
{ACAD_REACTORS
330
47
102
}
330
47
100
AcDbScale
 70
     0
300
4:1
140
4.0
141
1.0
290
     0
  0
SCALE
  5
56
102
{ACAD_REACTORS
330
47
102
}
330
47
100
AcDbScale
 70
     0
300
8:1
140
8.0
141
1.0
290
     0
  0
SCALE
  5
57
102
{ACAD_REACTORS
330
47
102
}
330
47
100
AcDbScale
 70
     0
300
10:1
140
10.0
141
1.0
290
     0
  0
SCALE
  5
58
102
{ACAD_REACTORS
330
47
102
}
330
47
100
AcDbScale
 70
     0
300
100:1
140
100.0
141
1.0
290
     0
  0
ENDSEC
  0
EOF
